<?xml version="1.0" encoding="utf-8" ?>
<svg baseProfile="full" height="200mm" version="1.1" viewBox="0,0,200,200" width="200mm" xmlns="http://www.w3.org/2000/svg" xmlns:ev="http://www.w3.org/2001/xml-events" xmlns:xlink="http://www.w3.org/1999/xlink"><defs /><rect fill="#1a1a1a" height="200" width="200" x="0" y="0" /><text alignment-baseline="middle" fill="#e1ed5e" style="dominant-baseline: central; font-size:9.0px; font-family:Arial;" text-anchor="middle" x="100.0" y="100.0">2021</text><line stroke="#e1ed5e" stroke-width="0.3" x1="100.0" x2="100.0" y1="15.0" y2="10.0" /><path d="M 100.0 14.0 a86.0,86.0 0 0,1 42.46469731375804,11.215312516191453" fill="none" id="id49" stroke="none" /><text fill="#e1ed5e" style="font-size:6.75px; font-family:Arial;" text-anchor="middle"><textPath startOffset="22.20632615414155" xlink:href="#id49">January</textPath></text><path d="M 100.36148047927253 79.00311137660856 l 0.648656937675031 -37.67776755901811 a58.68335075406898,58.68335075406898 0 0,0 1.0098380914303666,0.026081138589073422 l -1.2971216643002654 37.661019628286674" fill="#ffaa0f" stroke="none" /><path d="M 101.08401301168833 79.027996857942 l 1.9525183447501329 -37.77465807098534 a58.82508585934001,58.82508585934001 0 0,0 1.0107773075389603,0.06097284750384464 l -2.602457701128705 37.73545195410119" fill="#ffad10" stroke="none" /><path d="M 102.16513564639614 79.11191278185805 l 3.8864459657245307 -37.494381673395246 a58.69526653725549,58.69526653725549 0 0,0 1.0040616231692192,0.11281802236025082 l -4.5312742924034755 37.42192769756439" fill="#ffaa0f" stroke="none" /><path d="M 103.95276090670814 79.375362276772 l 7.0954920884101 -37.022718359497965 a58.69652083022249,58.69652083022249 0 0,0 0.9906675537925441,0.19871859157431213 l -7.73172605166977 36.895095811846446" fill="#ffaa0f" stroke="none" /><path d="M 104.66035177308747 79.52364482259891 l 8.362189505223675 -36.741252743729724 a58.68084216813499,58.68084216813499 0 0,0 0.9829776335162191,0.23263904711970143 l -8.993390825702418 36.59186778446915" fill="#ffaa0f" stroke="none" /><path d="M 105.36241919743992 79.69619591428918 l 8.026253180722462 -30.38991658867376 a52.43195460654024,52.43195460654024 0 0,0 0.8706253925441504,0.23797480784705233 l -8.548176462490323 30.247255240000413" fill="#ff0000" stroke="none" /><path d="M 106.0581310904928 79.89281104454417 l 10.872432070573813 -36.0860540623598 a58.68836792593699,58.68836792593699 0 0,0 0.9647658599889798,0.2997574489381432 l -11.49198330327351 35.89355647853913" fill="#ffaa0f" stroke="none" /><path d="M 106.74666289553966 80.11325718540242 l 12.105308449362937 -35.68210825873786 a58.67958787516799,58.67958787516799 0 0,0 0.953733301711684,0.33273882192292775 l -12.717723755137895 35.46844858364273" fill="#ffaa0f" stroke="none" /><path d="M 108.43124777332544 80.76684994638697 l 15.126894802988561 -34.50709140722442 a58.67707928923398,58.67707928923398 0 0,0 0.9215595231300913,0.41347689521314923 l -15.718636444585433 34.24159418149475" fill="#ffaa0f" stroke="none" /><path d="M 108.76106565485865 80.91482961587045 l 13.937119465522198 -30.360724384704007 a54.40683888308198,54.40683888308198 0 0,0 0.8477668160407937,0.39803788744308877 l -14.45766449286259 30.116321514620914" fill="#ff3805" stroke="none" /><path d="M 109.41281617654863 81.2277094730956 l 16.91523967769559 -33.73462177589801 a58.73791249813349,58.73791249813349 0 0,0 0.8999193965335147,0.46097366796346156 l -17.49341956181786 33.438455582622055" fill="#ffab0f" stroke="none" /><path d="M 110.05341064243156 81.56283822128135 l 19.058396319554138 -34.951594904867925 a60.81000447961774,60.81000447961774 0 0,0 0.914686455168229,0.5090220219911087 l -19.657206863794404 34.618357485316636" fill="#ffdf14" stroke="none" /><line stroke="#e1ed5e" stroke-width="0.3" x1="143.23703022742887" x2="145.7803849466894" y1="26.81831364943548" y2="22.513508569990506" /><path d="M 143.74570117128098 25.957352633546492 a86.0,86.0 0 0,1 28.547481713284135,27.462654790039103" fill="none" id="id50" stroke="none" /><text fill="#e1ed5e" style="font-size:6.75px; font-family:Arial;" text-anchor="middle"><textPath startOffset="19.985693538727396" xlink:href="#id50">February</textPath></text><path d="M 110.68208982089419 81.91981866633111 l 19.162683394095662 -32.43417687120071 a58.67206211736598,58.67206211736598 0 0,0 0.8650998135605537,0.5212129580023525 l -19.71814527387385 32.099517303739745" fill="#ffa90f" stroke="none" /><path d="M 111.2981086023043 82.29822771554956 l 20.270126098015016 -31.759046491284 a58.67645214275049,58.67645214275049 0 0,0 0.8467095147259062,0.5507234211351472 l -20.8138026385252 31.405424145989326" fill="#ffaa0f" stroke="none" /><path d="M 112.19680574252982 82.90503203632743 l 25.51913424881706 -35.76746171524267 a64.93788263401524,64.93788263401524 0 0,0 0.9043518058278917,0.6570500472124057 l -26.13103137099874 35.32289243321359" fill="#beff1f" stroke="none" /><path d="M 112.48926042617603 83.11751280151076 l 29.877250027725992 -40.38688232186898 a71.23694191428999,71.23694191428999 0 0,0 0.9795209986781854,0.7377549086044589 l -30.56801718016256 39.86661082375868" fill="#3bff2e" stroke="none" /><path d="M 113.06298171725822 83.55741782278167 l 31.96909737989776 -40.24000968369978 a72.39340002986413,72.39340002986413 0 0,0 0.9690256530836224,0.7835513535765266 l -32.65702643154587 39.68375223285913" fill="#31ff3c" stroke="none" /><path d="M 113.34407831869373 83.78471172551755 l 25.9560953600561 -31.540999587333594 a61.84793190981036,61.84793190981036 0 0,0 0.8162232468318878,0.6835634958977549 l -26.495176143847104 31.089534934042018" fill="#fff817" stroke="none" /><path d="M 113.89432698308785 84.25364557470405 l 41.53858119444453 -47.0754159311065 a83.78175302374198,83.78175302374198 0 0,0 1.0731605239682396,0.963494114394276 l -42.34275270600876 46.35342280794293" fill="#4cd6ff" stroke="none" /><path d="M 114.42810811169701 84.74124197986012 l 25.92922985926805 -27.42201825826362 a58.73979393758399,58.73979393758399 0 0,0 0.7287000279759135,0.7010088495645596 l -26.39741313085639 26.97162632193676" fill="#ffab0f" stroke="none" /><path d="M 114.94478906791727 85.2469230424477 l 44.8343672037518 -44.25923087265689 a84.0,84.0 0 0,0 1.0069429451875638,1.0377432177995427 l -45.58957441264248 43.480923459307235" fill="#4dd2ff" stroke="none" /><path d="M 115.4437574822437 85.77008943001954 l 28.09809148374646 -25.8896404881096 a59.207018067791545,59.207018067791545 0 0,0 0.684140926395757,0.7554454983498188 l -28.539576050758257 25.402142202490232" fill="#ffb711" stroke="none" /><path d="M 115.9244219780498 86.31012108654704 l 28.579308310315167 -24.5690092072258 a58.68836792593699,58.68836792593699 0 0,0 0.6519701594706755,0.7717270268391282 l -28.997989083272962 24.073423230757566" fill="#ffaa0f" stroke="none" /><path d="M 116.38621287248628 86.86637796730983 l 29.481970455899923 -23.629929609719344 a58.783067044945504,58.783067044945504 0 0,0 0.6260282416558804,0.7949922927396674 l -29.88435277814977 23.11894492302664" fill="#ffac0f" stroke="none" /><line stroke="#e1ed5e" stroke-width="0.3" x1="172.23445277983987" x2="176.4835382374775" y1="55.19839476539836" y2="52.563006222186495" /><path d="M 173.08426987136738 54.67131705675599 a86.0,86.0 0 0,1 12.851231095245387,41.99856678651699" fill="none" id="id51" stroke="none" /><text fill="#e1ed5e" style="font-size:6.75px; font-family:Arial;" text-anchor="middle"><textPath startOffset="22.20632615414155" xlink:href="#id51">March</textPath></text><line stroke="#e1ed5e" stroke-width="0.3" x1="184.98032266829074" x2="189.97916517819016" y1="98.17113171792111" y2="98.06355123074" /><path d="M 185.9800911702706 98.14961562048488 a86.0,86.0 0 0,1 -9.607161424134198,41.387399972396054" fill="none" id="id52" stroke="none" /><text fill="#e1ed5e" style="font-size:6.75px; font-family:Arial;" text-anchor="middle"><textPath startOffset="21.466115282336823" xlink:href="#id52">April</textPath></text><line stroke="#e1ed5e" stroke-width="0.3" x1="174.80103733775053" x2="179.2010983576182" y1="140.37084112569926" y2="142.7455964860345" /><path d="M 175.68104954172406 140.8457921977663 a86.0,86.0 0 0,1 -30.038265399797805,32.042727171017184" fill="none" id="id53" stroke="none" /><text fill="#e1ed5e" style="font-size:6.75px; font-family:Arial;" text-anchor="middle"><textPath startOffset="22.206326154141568" xlink:href="#id53">May</textPath></text><line stroke="#e1ed5e" stroke-width="0.3" x1="143.8653032363475" x2="146.44561519142675" y1="172.8068346515853" y2="177.08958963109032" /><path d="M 144.38136562736335 173.6633856474863 a86.0,86.0 0 0,1 -40.68145358897372,12.25698825130547" fill="none" id="id54" stroke="none" /><text fill="#e1ed5e" style="font-size:6.75px; font-family:Arial;" text-anchor="middle"><textPath startOffset="21.466115282336833" xlink:href="#id54">June</textPath></text><line stroke="#e1ed5e" stroke-width="0.3" x1="102.19456741930631" x2="102.32365962044197" y1="184.97166512339345" y2="189.96999836594603" /><path d="M 102.22038585953345 185.97133177190398 a86.0,86.0 0 0,1 -42.740103519485714,-10.115201625700543" fill="none" id="id55" stroke="none" /><text fill="#e1ed5e" style="font-size:6.75px; font-family:Arial;" text-anchor="middle"><textPath startOffset="22.20632615414155" xlink:href="#id55">July</textPath></text><line stroke="#e1ed5e" stroke-width="0.3" x1="58.666819895761336" x2="56.23545636021788" y1="174.27360380694188" y2="178.64263932499728" /><path d="M 58.180547188652646 175.14741091055294 a86.0,86.0 0 0,1 -31.652253787137756,-30.449443065178592" fill="none" id="id56" stroke="none" /><text fill="#e1ed5e" style="font-size:6.75px; font-family:Arial;" text-anchor="middle"><textPath startOffset="22.20632615414155" xlink:href="#id56">August</textPath></text><line stroke="#e1ed5e" stroke-width="0.3" x1="26.63291911575756" x2="22.317208475507996" y1="142.92168965132927" y2="145.44649492493687" /><path d="M 25.769776987707644 143.4266507060508 a86.0,86.0 0 0,1 -11.730757126820373,-40.83630448921669" fill="none" id="id57" stroke="none" /><text fill="#e1ed5e" style="font-size:6.75px; font-family:Arial;" text-anchor="middle"><textPath startOffset="21.46611528233685" xlink:href="#id57">September</textPath></text><line stroke="#e1ed5e" stroke-width="0.3" x1="15.007084014347285" x2="10.007500721073583" y1="101.09737516637583" y2="101.16192664675087" /><path d="M 14.007167355692545 101.11028546245083 a86.0,86.0 0 0,1 10.666146001902534,-42.60595125391555" fill="none" id="id58" stroke="none" /><text fill="#e1ed5e" style="font-size:6.75px; font-family:Arial;" text-anchor="middle"><textPath startOffset="22.20632615414155" xlink:href="#id58">October</textPath></text><line stroke="#e1ed5e" stroke-width="0.3" x1="26.266209847984243" x2="21.928928074336255" y1="57.711370442889674" y2="55.22380399835377" /><path d="M 25.398753493254645 57.213857153982495 a86.0,86.0 0 0,1 29.58750427330803,-30.492523968695096" fill="none" id="id59" stroke="none" /><text fill="#e1ed5e" style="font-size:6.75px; font-family:Arial;" text-anchor="middle"><textPath startOffset="21.46611528233685" xlink:href="#id59">November</textPath></text><line stroke="#e1ed5e" stroke-width="0.3" x1="56.76296977257108" x2="54.21961505331056" y1="26.818313649435495" y2="22.513508569990535" /><path d="M 56.25429882871898 25.957352633546506 a86.0,86.0 0 0,1 42.26535254187918,-11.944610805530505" fill="none" id="id60" stroke="none" /><text fill="#e1ed5e" style="font-size:6.75px; font-family:Arial;" text-anchor="middle"><textPath startOffset="22.20632615414155" xlink:href="#id60">December</textPath></text></svg>