<?xml version="1.0" encoding="utf-8" ?>
<svg baseProfile="full" height="200mm" version="1.1" viewBox="0,0,200,200" width="200mm" xmlns="http://www.w3.org/2000/svg" xmlns:ev="http://www.w3.org/2001/xml-events" xmlns:xlink="http://www.w3.org/1999/xlink"><defs /><rect fill="#1a1a1a" height="200" width="200" x="0" y="0" /><text alignment-baseline="middle" fill="#e1ed5e" style="dominant-baseline: central; font-size:9.0px; font-family:Arial;" text-anchor="middle" x="100.0" y="100.0">2017</text><line stroke="#e1ed5e" stroke-width="0.3" x1="100.0" x2="100.0" y1="15.0" y2="10.0" /><path d="M 100.0 14.0 a86.0,86.0 0 0,1 42.46469731375804,11.215312516191453" fill="none" id="id1" stroke="none" /><text fill="#e1ed5e" style="font-size:6.75px; font-family:Arial;" text-anchor="middle"><textPath startOffset="22.20632615414155" xlink:href="#id1">January</textPath></text><line stroke="#e1ed5e" stroke-width="0.3" x1="143.23703022742887" x2="145.7803849466894" y1="26.81831364943548" y2="22.513508569990506" /><path d="M 143.74570117128098 25.957352633546492 a86.0,86.0 0 0,1 28.547481713284135,27.462654790039103" fill="none" id="id2" stroke="none" /><text fill="#e1ed5e" style="font-size:6.75px; font-family:Arial;" text-anchor="middle"><textPath startOffset="19.985693538727396" xlink:href="#id2">February</textPath></text><path d="M 117.04232023915458 87.72973835380427 l 40.913932741321574 -29.457529999786814 a71.41523545566088,71.41523545566088 0 0,0 0.7096884949205107,1.003804046622687 l -41.41493385604596 28.748899452832337" fill="#ff0801" stroke="none" /><path d="M 117.45458315368197 88.32363383020206 l 42.13401679690043 -28.18584689152241 a71.69237947101942,71.69237947101942 0 0,0 0.6773337764879374,1.0316258107904719 l -42.61294720874629 27.456403016754265" fill="#ff1b02" stroke="none" /><line stroke="#e1ed5e" stroke-width="0.3" x1="172.23445277983987" x2="176.4835382374775" y1="55.19839476539836" y2="52.563006222186495" /><path d="M 173.08426987136738 54.67131705675599 a86.0,86.0 0 0,1 12.851231095245387,41.99856678651699" fill="none" id="id3" stroke="none" /><text fill="#e1ed5e" style="font-size:6.75px; font-family:Arial;" text-anchor="middle"><textPath startOffset="22.20632615414155" xlink:href="#id3">March</textPath></text><path d="M 118.3937258080291 89.86733742301442 l 44.3889539395956 -24.45281054580814 a71.67858695189445,71.67858695189445 0 0,0 0.5860301351954906,1.0858248379645483 l -44.803292174009556 23.685104724511135" fill="#ff1a02" stroke="none" /><path d="M 118.89224826269711 90.83032412892265 l 46.537667325036544 -22.587852924270752 a72.72973593383462,72.72973593383462 0 0,0 0.5369595057425641,1.1309736608406868 l -46.919585024620865 21.783436847789524" fill="#ff6209" stroke="none" /><path d="M 120.78858239683441 97.02765380044208 l 51.197994763669236 -7.3202762100772745 a72.71867275571296,72.71867275571296 0 0,0 0.1665049871094573,1.2406555541797124 l -51.31641574983653 6.437902313832898" fill="#ff6209" stroke="none" /><path d="M 120.94382443527127 98.46500227214037 l 52.680857093534456 -3.8610424848715583 a73.82215778609752,73.82215778609752 0 0,0 0.08197567096907524,1.2681273466008047 l -52.739513355507945 2.9536560740177187" fill="#ffaa0f" stroke="none" /><line stroke="#e1ed5e" stroke-width="0.3" x1="184.98032266829074" x2="189.97916517819016" y1="98.17113171792111" y2="98.06355123074" /><path d="M 185.9800911702706 98.14961562048488 a86.0,86.0 0 0,1 -9.607161424134198,41.387399972396054" fill="none" id="id4" stroke="none" /><text fill="#e1ed5e" style="font-size:6.75px; font-family:Arial;" text-anchor="middle"><textPath startOffset="21.466115282336823" xlink:href="#id4">April</textPath></text><path d="M 120.99980553446 99.90962569577887 l 51.23459771414833 -0.22049209517047672 a72.23507216443289,72.23507216443289 0 0,0 -0.005351252264721604,1.2434425680340637 l -51.23080216459411 -0.6614599510672716" fill="#ff4106" stroke="none" /><path d="M 120.89721153311464 102.0752229133903 l 50.341890816624826 4.999262469086067 a71.58951073323192,71.58951073323192 0 0,0 -0.13233047825380032,1.225215879618655 l -50.24837803686997 -5.865074670589513" fill="#ff1402" stroke="none" /><path d="M 120.76222939487914 103.15116336523771 l 52.90738492439241 8.029957185878853 a74.5132842567607,74.5132842567607 0 0,0 -0.20337955858934045,1.266444705476772 l -52.76132361144178 -8.93948112104883" fill="#ffd513" stroke="none" /><path d="M 119.26925614724726 108.34839909993367 l 46.421441234869654 20.11207465723438 a71.59096513549258,71.59096513549258 0 0,0 -0.49963305682376447,1.1265406438627392 l -46.06836709331462 -20.90816363758981" fill="#ff1402" stroke="none" /><line stroke="#e1ed5e" stroke-width="0.3" x1="174.80103733775053" x2="179.2010983576182" y1="140.37084112569926" y2="142.7455964860345" /><path d="M 175.68104954172406 140.8457921977663 a86.0,86.0 0 0,1 -30.038265399797805,32.042727171017184" fill="none" id="id5" stroke="none" /><text fill="#e1ed5e" style="font-size:6.75px; font-family:Arial;" text-anchor="middle"><textPath startOffset="22.206326154141568" xlink:href="#id5">May</textPath></text><path d="M 118.12598468904814 110.60418214915192 l 46.77580725576622 27.365088784029815 a75.19247391092628,75.19247391092628 0 0,0 -0.6631944843745553,1.1115521026872237 l -46.297831895693434 -28.166202980603142" fill="#fffe18" stroke="none" /><path d="M 117.35343817320211 111.8261652097733 l 41.57109296083165 28.330213782351716 a71.30662762411984,71.30662762411984 0 0,0 -0.6999563586554011,1.0083393398551825 l -41.07727569501411 -29.04159438439392" fill="#ff0000" stroke="none" /><path d="M 115.07121518719521 114.62390073753431 l 36.263481832064066 35.18717980750807 a71.528979184131,71.528979184131 0 0,0 -0.8650216592389293,0.876262373856041 l -35.652419547769604 -35.80618267534478" fill="#ff1001" stroke="none" /><path d="M 114.0293411484842 115.62618273729858 l 33.712518549312676 37.54973022685712 a71.46301761733535,71.46301761733535 0 0,0 -0.9224094004547615,0.8139190491993259 l -33.06116679595132 -38.124472417828734" fill="#ff0b01" stroke="none" /><path d="M 111.7513745106137 117.40417183066458 l 35.25412353184112 52.21251549199374 a84.0,84.0 0 0,0 -1.2053012050401435,0.7988079156347263 l -34.35014762806101 -52.81162142871979" fill="#4dd2ff" stroke="none" /><line stroke="#e1ed5e" stroke-width="0.3" x1="143.8653032363475" x2="146.44561519142675" y1="172.8068346515853" y2="177.08958963109032" /><path d="M 144.38136562736335 173.6633856474863 a86.0,86.0 0 0,1 -40.68145358897372,12.25698825130547" fill="none" id="id6" stroke="none" /><text fill="#e1ed5e" style="font-size:6.75px; font-family:Arial;" text-anchor="middle"><textPath startOffset="21.466115282336833" xlink:href="#id6">June</textPath></text><path d="M 109.89434966115114 118.52300852407294 l 23.710437615095262 44.38782265582601 a71.32358941912217,71.32358941912217 0 0,0 -1.0878854550195147,0.5691302534243216 l -22.942861257549254 -44.789382328195046" fill="#ff0100" stroke="none" /><path d="M 107.59598834532513 119.57807347666477 l 18.744169111323984 48.311648654171776 a72.82045224964801,72.82045224964801 0 0,0 -1.1725125449195444,0.443343916578287 l -17.909786345644164 -48.627140820856695" fill="#ff6909" stroke="none" /><path d="M 105.18746579009965 120.34920634021253 l 12.538637727370967 49.18612221528378 a71.75915734756718,71.75915734756718 0 0,0 -1.1995626893551679,0.29482332382826804 l -11.690121753272587 -49.394666797426076" fill="#ff2003" stroke="none" /><line stroke="#e1ed5e" stroke-width="0.3" x1="102.19456741930631" x2="102.32365962044197" y1="184.97166512339345" y2="189.96999836594603" /><path d="M 102.22038585953345 185.97133177190398 a86.0,86.0 0 0,1 -42.740103519485714,-10.115201625700543" fill="none" id="id7" stroke="none" /><text fill="#e1ed5e" style="font-size:6.75px; font-family:Arial;" text-anchor="middle"><textPath startOffset="22.20632615414155" xlink:href="#id7">July</textPath></text><line stroke="#e1ed5e" stroke-width="0.3" x1="58.666819895761336" x2="56.23545636021788" y1="174.27360380694188" y2="178.64263932499728" /><path d="M 58.180547188652646 175.14741091055294 a86.0,86.0 0 0,1 -31.652253787137756,-30.449443065178592" fill="none" id="id8" stroke="none" /><text fill="#e1ed5e" style="font-size:6.75px; font-family:Arial;" text-anchor="middle"><textPath startOffset="22.20632615414155" xlink:href="#id8">August</textPath></text><line stroke="#e1ed5e" stroke-width="0.3" x1="26.63291911575756" x2="22.317208475507996" y1="142.92168965132927" y2="145.44649492493687" /><path d="M 25.769776987707644 143.4266507060508 a86.0,86.0 0 0,1 -11.730757126820373,-40.83630448921669" fill="none" id="id9" stroke="none" /><text fill="#e1ed5e" style="font-size:6.75px; font-family:Arial;" text-anchor="middle"><textPath startOffset="21.46611528233685" xlink:href="#id9">September</textPath></text><line stroke="#e1ed5e" stroke-width="0.3" x1="15.007084014347285" x2="10.007500721073583" y1="101.09737516637583" y2="101.16192664675087" /><path d="M 14.007167355692545 101.11028546245083 a86.0,86.0 0 0,1 10.666146001902534,-42.60595125391555" fill="none" id="id10" stroke="none" /><text fill="#e1ed5e" style="font-size:6.75px; font-family:Arial;" text-anchor="middle"><textPath startOffset="22.20632615414155" xlink:href="#id10">October</textPath></text><line stroke="#e1ed5e" stroke-width="0.3" x1="26.266209847984243" x2="21.928928074336255" y1="57.711370442889674" y2="55.22380399835377" /><path d="M 25.398753493254645 57.213857153982495 a86.0,86.0 0 0,1 29.58750427330803,-30.492523968695096" fill="none" id="id11" stroke="none" /><text fill="#e1ed5e" style="font-size:6.75px; font-family:Arial;" text-anchor="middle"><textPath startOffset="21.46611528233685" xlink:href="#id11">November</textPath></text><line stroke="#e1ed5e" stroke-width="0.3" x1="56.76296977257108" x2="54.21961505331056" y1="26.818313649435495" y2="22.513508569990535" /><path d="M 56.25429882871898 25.957352633546506 a86.0,86.0 0 0,1 42.26535254187918,-11.944610805530505" fill="none" id="id12" stroke="none" /><text fill="#e1ed5e" style="font-size:6.75px; font-family:Arial;" text-anchor="middle"><textPath startOffset="22.20632615414155" xlink:href="#id12">December</textPath></text></svg>