<?xml version="1.0" encoding="utf-8" ?>
<svg baseProfile="full" height="200mm" version="1.1" viewBox="0,0,200,200" width="200mm" xmlns="http://www.w3.org/2000/svg" xmlns:ev="http://www.w3.org/2001/xml-events" xmlns:xlink="http://www.w3.org/1999/xlink"><defs /><rect fill="#1a1a1a" height="200" width="200" x="0" y="0" /><text alignment-baseline="middle" fill="#e1ed5e" style="dominant-baseline: central; font-size:9.0px; font-family:Arial;" text-anchor="middle" x="100.0" y="100.0">2020</text><line stroke="#e1ed5e" stroke-width="0.3" x1="100.0" x2="100.0" y1="15.0" y2="10.0" /><path d="M 100.0 14.0 a86.0,86.0 0 0,1 42.35913384403234,11.155469271406648" fill="none" id="id37" stroke="none" /><text fill="#e1ed5e" style="font-size:6.75px; font-family:Arial;" text-anchor="middle"><textPath startOffset="22.145653131862478" xlink:href="#id37">January</textPath></text><path d="M 100.0 79.0 l 0.0 -47.308754725455714 a68.30875472545571,68.30875472545571 0 0,0 1.172610608750598,0.010065451775549874 l -0.8121176839017433 47.301783671874595" fill="#36ff73" stroke="none" /><path d="M 101.08105385017728 79.02784411241856 l 2.4372975508263757 -47.28292135675667 a68.34569749597634,68.34569749597634 0 0,0 1.171170726255872,0.070454722618086 l -3.24861262921471 47.23411465631389" fill="#36ff73" stroke="none" /><path d="M 101.44090949804482 79.04949213459386 l 3.2475339830358387 -47.2184313776034 a68.32997716809521,68.32997716809521 0 0,0 1.1695196371673242,0.09052821647587662 l -4.0576226149783965 47.15572539413247" fill="#36ff73" stroke="none" /><path d="M 102.87502721639298 79.19773525538626 l 6.473196360927623 -46.83682424851199 a68.28203016805779,68.28203016805779 0 0,0 1.1597374237659563,0.17044146354204384 l -7.2762588903012615 46.718801711671055" fill="#36ff72" stroke="none" /><path d="M 103.94208987418118 79.37332000966035 l 8.878518321634308 -46.456159563525404 a68.29696447954487,68.29696447954487 0 0,0 1.1496769986231672,0.22996759830685218 l -9.674691805788433 46.296902568555694" fill="#36ff72" stroke="none" /><path d="M 106.04205211174951 79.88797359093562 l 13.656751990280691 -45.45888575777895 a68.46595800426695,68.46595800426695 0 0,0 1.1227092365803293,0.3478181913800966 l -14.43510185973265 45.21775097859221" fill="#37ff75" stroke="none" /><path d="M 106.72888874123014 80.10723608172694 l 15.152781458523402 -44.79650590930793 a68.28989033199835,68.28989033199835 0 0,0 1.1072530231297213,0.3851600786019498 l -15.919540253698141 44.52978739813739" fill="#36ff72" stroke="none" /><path d="M 108.07796709384702 80.6158196554323 l 18.18411861205029 -43.63526497297564 a68.2725979713291,68.2725979713291 0 0,0 1.077942800680152,0.46010968316929435 l -18.930496487900875 43.31668064014695" fill="#36ff72" stroke="none" /><path d="M 109.3889696526874 81.21577127319529 l 21.136690823465802 -42.28754055479268 a68.27574203690534,68.27574203690534 0 0,0 1.0438801040645806,0.5330126190755934 l -21.85949814924396 41.91846998404425" fill="#36ff72" stroke="none" /><path d="M 109.71004243097381 81.37971332152246 l 21.872218570140177 -41.9428630683631 a68.30325261069731,68.30325261069731 0 0,0 1.0349932808990363,0.5510756258503514 l -22.589000666825772 41.56121697479018" fill="#36ff73" stroke="none" /><path d="M 110.02825361518725 81.54914285379988 l 22.593129528216156 -41.568813614705135 a68.31189879103192,68.31189879103192 0 0,0 1.0255106243792895,0.5688334563244641 l -23.303384340751546 41.17484724294753" fill="#36ff73" stroke="none" /><line stroke="#e1ed5e" stroke-width="0.3" x1="143.13028292997686" x2="145.6673583964461" y1="26.7553504044142" y2="22.446841604673864" /><path d="M 143.63769802327073 25.89364864446614 a86.0,86.0 0 0,1 29.32050498858742,28.57503671076993" fill="none" id="id38" stroke="none" /><text fill="#e1ed5e" style="font-size:6.75px; font-family:Arial;" text-anchor="middle"><textPath startOffset="20.669276256404974" xlink:href="#id38">February</textPath></text><path d="M 110.65571695917076 81.90426304109057 l 24.010361068197728 -40.77484226010805 a68.31897293857844,68.31897293857844 0 0,0 1.005483649569223,0.6037640416745449 l -24.706777474324387 40.35666421789759" fill="#36ff73" stroke="none" /><path d="M 110.96478420261332 82.08984904055464 l 24.68051156913415 -40.31376083572875 a68.26866788935882,68.26866788935882 0 0,0 0.9942384533479919,0.6204783284472215 l -25.368914151271856 39.88414671043998" fill="#36ff72" stroke="none" /><line stroke="#e1ed5e" stroke-width="0.3" x1="172.87174338648825" x2="177.1583165268699" y1="56.24261187166439" y2="53.66864786411523" /><path d="M 173.72905801456457 55.72781907015455 a86.0,86.0 0 0,1 12.242430191666344,42.057860355516425" fill="none" id="id39" stroke="none" /><text fill="#e1ed5e" style="font-size:6.75px; font-family:Arial;" text-anchor="middle"><textPath startOffset="22.145653131862474" xlink:href="#id39">March</textPath></text><path d="M 119.16976305983485 91.42560881287824 l 35.959539441918736 -16.084244605493925 a60.392783620915516,60.392783620915516 0 0,0 0.4151748440733653,0.950001292467058 l -36.23034816800907 15.464581243251017" fill="#51ff2b" stroke="none" /><path d="M 119.58574465831526 92.42381321644754 l 36.72959406428753 -14.207796025613975 a60.38177939139874,60.38177939139874 0 0,0 0.3656528378700704,0.9699375946208333 l -36.96807758597205 13.575190150798983" fill="#51ff2b" stroke="none" /><path d="M 119.94978838288452 93.4421083053983 l 37.54670094908045 -12.342346374205814 a60.523262342328856,60.523262342328856 0 0,0 0.3159754794756596,0.9897886890655089 l -37.753041144333366 11.695988651448918" fill="#50ff2b" stroke="none" /><path d="M 120.16314734710363 94.1308016681162 l 45.412929163626686 -13.219041824410516 a68.29775049593891,68.29775049593891 0 0,0 0.31801223959080327,1.128513249397136 l -45.633159895292074 12.437520651110365" fill="#36ff72" stroke="none" /><path d="M 120.43855184770803 95.1765574152323 l 46.32621118544954 -10.93285970003286 a68.59879477486244,68.59879477486244 0 0,0 0.2606399396794633,1.1484276655240266 l -46.507061986686665 10.135997700569808" fill="#37ff76" stroke="none" /><path d="M 120.592083275326 95.88100663000786 l 46.31272597401612 -9.263842258340663 a68.23015308605008,68.23015308605008 0 0,0 0.219875592261383,1.1504820092930768 l -46.46492785855966 8.467457684014272" fill="#36ff72" stroke="none" /><path d="M 120.82617615685814 97.30363454192243 l 47.43086202104827 -6.1408746875639455 a68.82673952913875,68.82673952913875 0 0,0 0.14164514723804364,1.1730250130582875 l -47.52928925454598 5.325755997582245" fill="#37ff79" stroke="none" /><path d="M 120.93736805541906 98.37931529534042 l 47.14884948483109 -3.6496191402904063 a68.28989033199835,68.28989033199835 0 0,0 0.08043911329931853,1.1695670534134557 l -47.20455255929548 2.8397086627226167" fill="#36ff72" stroke="none" /><path d="M 120.99303781780057 99.45929381324524 l 47.235710162708436 -1.2166243371921437 a68.2513755286896,68.2513755286896 0 0,0 0.020113252664020337,1.171496133269979 l -47.24963484697113 0.40558128795309834" fill="#36ff72" stroke="none" /><line stroke="#e1ed5e" stroke-width="0.3" x1="184.99686870605535" x2="189.99668451229388" y1="99.2704041080226" y2="99.22748670261217" /><path d="M 185.99683186730306 99.26182062694052 a86.0,86.0 0 0,1 -10.086455211305974,41.156179273409016" fill="none" id="id40" stroke="none" /><text fill="#e1ed5e" style="font-size:6.75px; font-family:Arial;" text-anchor="middle"><textPath startOffset="21.40746469413373" xlink:href="#id40">April</textPath></text><path d="M 120.99303781780057 100.54070618675476 l 47.281283999345526 1.2177981575623706 a68.29696447954487,68.29696447954487 0 0,0 -0.04024744345712724,1.171760402441308 l -47.25341186889155 -2.029264824567789" fill="#36ff72" stroke="none" /><path d="M 120.98066250479742 100.90099992219065 l 47.24634423545428 2.028961309977838 a68.28989033199835,68.28989033199835 0 0,0 -0.06035008670223115,1.1707755593680527 l -47.20455255929548 -2.839708662722621" fill="#36ff72" stroke="none" /><path d="M 120.9064616781168 101.97986365728391 l 47.04247320819506 4.454971122691055 a68.2529475614777,68.2529475614777 0 0,0 -0.12047492724658487,1.1654856350669585 l -46.95906588846681 -5.261861280040946" fill="#36ff72" stroke="none" /><path d="M 120.77682067341334 103.0534771498775 l 46.854969584677455 6.886066989454974 a68.35827375828126,68.35827375828126 0 0,0 -0.18059119181491748,1.1595249988316656 l -46.72985690072427 -7.68938017021809" fill="#37ff73" stroke="none" /><path d="M 120.65975698304385 103.76489593502545 l 46.48425989151906 8.470980624403369 a68.24980349590149,68.24980349590149 0 0,0 -0.219938916837224,1.1508133502323352 l -46.331994682399674 -9.26769653966902" fill="#36ff72" stroke="none" /><path d="M 120.51834098615036 104.47187691870673 l 46.23289019598951 10.076243234874605 a68.31818692218437,68.31818692218437 0 0,0 -0.2595737749744549,1.1437299471131661 l -46.05310555945739 -10.868407515926787" fill="#36ff73" stroke="none" /><path d="M 120.26092885502905 105.52220625578681 l 45.692311463607844 12.453642674090153 a68.3590597746753,68.3590597746753 0 0,0 -0.31829771167293774,1.1295262891072821 l -45.47179525986033 -13.236176887100443" fill="#37ff73" stroke="none" /><path d="M 119.94978838288452 106.5578916946017 l 44.904758168264635 14.761085931738657 a68.26866788935882,68.26866788935882 0 0,0 -0.3755250662407385,1.1101731319093184 l -44.64474768045153 -15.529760738122137" fill="#36ff72" stroke="none" /><path d="M 119.71291397450082 107.23885506374661 l 44.361988239805655 16.29033655922076 a68.2584496762361,68.2584496762361 0 0,0 -0.4133514461530172,1.0964638200269132 l -44.0758061098382 -17.049468659441832" fill="#36ff72" stroke="none" /><path d="M 119.4528033332814 107.91128576633889 l 43.77445032002885 17.802687860091332 a68.25609162705393,68.25609162705393 0 0,0 -0.4507312315058079,1.0815908726705212 l -43.462393243986554 -18.55151124220313" fill="#36ff72" stroke="none" /><path d="M 119.16976305983485 108.57439118712176 l 43.17627323897001 19.312197839766892 a68.29853651233297,68.29853651233297 0 0,0 -0.4878972145006725,1.066143465112148 l -42.83839155961429 -20.05053028709373" fill="#36ff72" stroke="none" /><path d="M 118.8641267826498 109.22738970284198 l 42.44975731929818 20.764303489334957 a68.25609162705393,68.25609162705393 0 0,0 -0.5238820367750716,1.0481150082139703 l -42.08705536931137 -21.489950353712672" fill="#36ff72" stroke="none" /><line stroke="#e1ed5e" stroke-width="0.3" x1="174.33088141563837" x2="178.70328620479359" y1="141.23008692659167" y2="143.65538615756765" /><path d="M 175.20536237346943 141.71514677278685 a86.0,86.0 0 0,1 -30.301960400862466,31.631185727798858" fill="none" id="id41" stroke="none" /><text fill="#e1ed5e" style="font-size:6.75px; font-family:Arial;" text-anchor="middle"><textPath startOffset="22.145653131862474" xlink:href="#id41">May</textPath></text><path d="M 118.36410011445183 110.18625677009912 l 41.367168364264515 22.945670965859765 a68.30482464348543,68.30482464348543 0 0,0 -0.5775551364165972,1.020484585783817 l -40.96717986282654 -23.652412321742705" fill="#36ff73" stroke="none" /><path d="M 117.81537515405839 111.11811171558189 l 40.081760120346416 25.013982749257462 a68.24665943032525,68.24665943032525 0 0,0 -0.628786724066717,0.9885571689317523 l -39.6464557046538 -25.698353592867885" fill="#36ff72" stroke="none" /><path d="M 117.21940702142032 112.02048342749411 l 38.76348451908162 27.05992271823954 a68.27417000411722,68.27417000411722 0 0,0 -0.679116346393281,0.9552621892722151 l -38.29325307415838 -27.72136213422126" fill="#36ff72" stroke="none" /><path d="M 116.79662413953412 112.60449989151573 l 37.88214934879543 28.42747110316173 a68.36220384025154,68.36220384025154 0 0,0 -0.7124253873400489,0.9325877011903053 l -37.38857198410108 -29.07357971759291" fill="#37ff73" stroke="none" /><path d="M 116.35404254752997 113.17365903436017 l 36.80807300475623 29.649978105855656 a68.26473780738854,68.26473780738854 0 0,0 -0.7429582361771319,0.906288244816693 l -36.29366794934047 -30.27746863237084" fill="#36ff72" stroke="none" /><path d="M 115.6541949942343 113.99807769240083 l 35.22237818180936 31.496067762135837 a68.25058951229553,68.25058951229553 0 0,0 -0.7884642825990466,0.8666603651888984 l -34.67651619836843 -32.096065702882406" fill="#36ff72" stroke="none" /><path d="M 115.16444852881244 114.52719865689866 l 34.17889722122614 32.742610380000244 a68.33154920088333,68.33154920088333 0 0,0 -0.8187199846073859,0.8400788295011911 l -33.611790435467945 -33.324511901569174" fill="#36ff73" stroke="none" /><path d="M 114.65682725009322 115.03919595460226 l 33.145045805896316 34.0097369160145 a68.48953849608864,68.48953849608864 0 0,0 -0.8490338714723222,0.8133552429473098 l -32.55633944855869 -34.5737042892674" fill="#37ff75" stroke="none" /><path d="M 113.86319453409587 115.77377054828091 l 31.192576869507768 35.49142653514087 a68.25058951229553,68.25058951229553 0 0,0 -0.8866743493922029,0.7658881848244974 l -30.57872304035271 -36.021658852430086" fill="#36ff72" stroke="none" /><path d="M 113.31354834802062 116.24036423190432 l 29.94389790143202 36.526686630053185 a68.2317251188382,68.2317251188382 0 0,0 -0.9121906792593328,0.7347962406211781 l -29.312456451817436 -37.03533116446777" fill="#36ff72" stroke="none" /><path d="M 112.7482090630111 116.68781488649013 l 28.730112508626036 37.60863952279288 a68.326833102519,68.326833102519 0 0,0 -0.9381827667763936,0.7040298386043985 l -28.080276752938875 -38.09628838866129" fill="#36ff73" stroke="none" /><path d="M 112.16784306229584 117.11559508785304 l 27.41032431426713 38.556053836974016 a68.30639667627352,68.30639667627352 0 0,0 -0.9615098172256631,0.6712085270390868 l -26.74441940586771 -39.020907179818224" fill="#36ff73" stroke="none" /><path d="M 111.5731344415666 117.5232005979908 l 26.068900094618396 39.47163735403242 a68.30325261069731,68.30325261069731 0 0,0 -0.9839388227768977,0.6377772573123839 l -25.38747563958449 -39.91332845304869" fill="#36ff73" stroke="none" /><path d="M 110.96478420261333 117.91015095944535 l 24.676817926216795 40.307727547611265 a68.26159374181233,68.26159374181233 0 0,0 -1.004639171941813,0.6032569571230952 l -23.981245997717544 -40.725398505270284" fill="#36ff72" stroke="none" /><line stroke="#e1ed5e" stroke-width="0.3" x1="143.1302829299769" x2="145.66735839644613" y1="173.24464959558577" y2="177.55315839532614" /><path d="M 143.63769802327073 174.10635135553383 a86.0,86.0 0 0,1 -40.68552437913181,11.842963189579606" fill="none" id="id42" stroke="none" /><text fill="#e1ed5e" style="font-size:6.75px; font-family:Arial;" text-anchor="middle"><textPath startOffset="21.407464694133747" xlink:href="#id42">June</textPath></text><path d="M 110.34350942703117 118.27599006163325 l 23.2944798710573 41.15911389820756 a68.29382041396863,68.29382041396863 0 0,0 -1.025239228501313,0.5686829176058642 l -22.584496454399893 -41.552929731246564" fill="#36ff72" stroke="none" /><path d="M 109.71004243097381 118.62028667847754 l 21.84459708476554 41.88989522812789 a68.24351536474904,68.24351536474904 0 0,0 -1.0433873846758004,0.5327610330449157 l -21.122282478376157 -42.258714212845646" fill="#36ff72" stroke="none" /><path d="M 109.06512990194946 118.94263497670748 l 20.447352744738566 42.7271030280841 a68.36770595500991,68.36770595500991 0 0,0 -1.0629917905249986,0.497533831567728 l -19.71087224034206 -43.07181309122236" fill="#37ff73" stroke="none" /><path d="M 108.4095320186766 119.2426549942271 l 18.924515984537667 43.302996078074486 a68.25766365984205,68.25766365984205 0 0,0 -1.0777070057341678,0.460009036328082 l -18.17837390363307 -43.621479764061974" fill="#36ff72" stroke="none" /><path d="M 107.407793817531 119.65005319985036 l 16.660812318060405 44.19478409723428 a68.23093910244413,68.23093910244413 0 0,0 -1.0995280945282722,0.4037619463618253 l -15.899695071878007 -44.47427689260483" fill="#36ff72" stroke="none" /><path d="M 106.72888874123015 119.89276391827305 l 15.143210856578344 44.76821212524181 a68.26002170902422,68.26002170902422 0 0,0 -1.1132145410958496,0.36593573090857673 l -14.37247357783476 -45.02156877755241" fill="#36ff72" stroke="none" /><line stroke="#e1ed5e" stroke-width="0.3" x1="101.45913802915013" x2="101.54496967792366" y1="184.9874750549273" y2="189.98673829345242" /><path d="M 101.47630435890484 185.9873277026323 a86.0,86.0 0 0,1 -42.54439059252881,-10.42667462771756" fill="none" id="id43" stroke="none" /><text fill="#e1ed5e" style="font-size:6.75px; font-family:Arial;" text-anchor="middle"><textPath startOffset="22.145653131862474" xlink:href="#id43">July</textPath></text><path d="M 99.27912038922189 120.98762331915562 l -0.32378468126426124 9.426637714933088 a30.432196728674626,30.432196728674626 0 0,0 -0.5219473004760012,-0.022414662883452275 l 0.4855577423411013 -9.419690483623807" fill="#ff0000" stroke="none" /><path d="M 97.48249496171623 120.84855314841334 l -1.2956430091852316 10.729782752205839 a31.80772541827301,31.80772541827301 0 0,0 -0.5415222510590724,-0.07011089705275793 l 1.479643082135098 -10.705960258952684" fill="#ff1702" stroke="none" /><path d="M 96.41257539226777 120.69131181640829 l -1.9805559368211383 11.423320331325456 a32.59374181232923,32.59374181232923 0 0,0 -0.550469910687514,-0.10031395484478227 l 2.1763605810597095 -11.387638202549308" fill="#ff2403" stroke="none" /><path d="M 95.00130118170881 120.39639698878247 l -2.759696356993488 11.260502885224437 a32.59374181232923,32.59374181232923 0 0,0 -0.5422895649145945,-0.13784788679444357 l 2.9525912151334612 -11.21146976659473" fill="#ff2403" stroke="none" /><path d="M 94.30408787586889 120.21278271476187 l -2.5583316049546494 9.078616333313711 a30.432196728674626,30.432196728674626 0 0,0 -0.5016095332792353,-0.14601122460191976 l 2.7138011506154913 -9.033361414409276" fill="#ff0000" stroke="none" /><path d="M 91.92203290615298 119.3841803445677 l -4.384119581569105 10.520291013071512 a32.39723771381517,32.39723771381517 0 0,0 -0.5115136993936572,-0.2183347817864412 l 4.564068356133194 -10.443481581625667" fill="#ff2103" stroke="none" /><path d="M 91.26138138417905 119.09545874513695 l -4.82444228705914 10.542277070433435 a32.59374181232923,32.59374181232923 0 0,0 -0.5067725980421053,-0.2371951643322594 l 5.0047035989727355 -10.45790567453065" fill="#ff2403" stroke="none" /><path d="M 90.28995756902619 118.62028667847754 l -4.724727761449996 9.06028846128712 a31.218213122730845,31.218213122730845 0 0,0 -0.47304688413388934,-0.2518708213295865 l 4.879563461370448 -8.977847172234961" fill="#ff0d01" stroke="none" /><line stroke="#e1ed5e" stroke-width="0.3" x1="58.13341422392154" x2="55.67067388415222" y1="173.97424548756322" y2="178.32567169271397" /><path d="M 57.64086615596768 174.84453072859336 a86.0,86.0 0 0,1 -31.369924170532247,-30.572349798747897" fill="none" id="id44" stroke="none" /><text fill="#e1ed5e" style="font-size:6.75px; font-family:Arial;" text-anchor="middle"><textPath startOffset="22.145653131862474" xlink:href="#id44">August</textPath></text><path d="M 88.1277618465304 117.32195027204791 l -6.4433676395294786 9.401065948448357 a32.39723771381517,32.39723771381517 0 0,0 -0.4560372619340087,-0.31834942646854053 l 6.603799992637253 -9.289071706174688" fill="#ff2103" stroke="none" /><path d="M 86.13680546590413 115.77377054828092 l -7.394188049214583 8.41322866762747 a32.20073361530112,32.20073361530112 0 0,0 -0.4120696802083678,-0.36847524899006523 l 7.537522756246322 -8.285057888754025" fill="#ff1e03" stroke="none" /><path d="M 85.86807049272751 115.53346607816431 l -7.934234480259286 8.7211135671095 a32.79024591084328,32.79024591084328 0 0,0 -0.41311061234776464,-0.38236901540575363 l 8.082774863921019 -8.583626805571367" fill="#ff2703" stroke="none" /><path d="M 85.34317274990678 115.03919595460226 l -7.680337668948793 7.880703049160897 a32.00422951678706,32.00422951678706 0 0,0 -0.39015911172917306,-0.38682443850431086 l 7.814488700807929 -7.747698600427927" fill="#ff1a02" stroke="none" /><path d="M 84.3458050057657 113.99807769240083 l -8.20296926748064 7.335145700999796 a32.00422951678706,32.00422951678706 0 0,0 -0.3626977395964327,-0.41268344815500585 l 8.327678071035669 -7.193249975033489" fill="#ff1a02" stroke="none" /><path d="M 83.64595745247003 113.17365903436017 l -8.416666730117043 6.779870933205539 a31.80772541827301,31.80772541827301 0 0,0 -0.3388788543334927,-0.42816236215161213 l 8.531812015092099 -6.634388627139247" fill="#ff1702" stroke="none" /><path d="M 83.4222238831116 112.89097897827486 l -9.152307434371524 7.116889618203919 a32.59374181232923,32.59374181232923 0 0,0 -0.33967028315489933,-0.4446393042123304 l 9.273129694880717 -6.958729400750718" fill="#ff2403" stroke="none" /><path d="M 82.78059297857968 112.02048342749411 l -9.345413100669784 6.5238241456250545 a32.39723771381517,32.39723771381517 0 0,0 -0.3144233116623404,-0.4587530083698659 l 9.456026149147451 -6.362436402185137" fill="#ff2103" stroke="none" /><path d="M 82.18462484594161 111.11811171558189 l -10.002269240965516 6.242155770997058 a32.79024591084328,32.79024591084328 0 0,0 -0.2939130825621845,-0.4800849319396584 l 10.107950287983105 -6.069533722932842" fill="#ff2703" stroke="none" /><line stroke="#e1ed5e" stroke-width="0.3" x1="26.387840678322732" x2="22.057713659400534" y1="142.50000000000003" y2="145.00000000000006" /><path d="M 25.521815274538284 143.00000000000003 a86.0,86.0 0 0,1 -11.493303480769212,-40.785679425670985" fill="none" id="id45" stroke="none" /><text fill="#e1ed5e" style="font-size:6.75px; font-family:Arial;" text-anchor="middle"><textPath startOffset="21.40746469413373" xlink:href="#id45">September</textPath></text><path d="M 81.4637452351635 109.86951160357371 l -10.060100089460986 5.356436660246993 a32.39723771381517,32.39723771381517 0 0,0 -0.257159910209212,-0.4931380356313098 l 10.150568068645148 -5.182952381511179" fill="#ff2103" stroke="none" /><path d="M 81.1358732173502 109.22738970284198 l -10.23804462882892 5.007940662919063 a32.39723771381517,32.39723771381517 0 0,0 -0.24008010347966866,-0.5016750796265534 l 10.3225039902685 -4.831453081227407" fill="#ff2103" stroke="none" /><path d="M 80.83023694016515 108.57439118712176 l -10.22454330960237 4.573308171444592 a32.20073361530112,32.20073361530112 0 0,0 -0.221366424202226,-0.5065296997227525 l 10.301543615821563 -4.397116401945991" fill="#ff1e03" stroke="none" /><path d="M 80.5471966667186 107.91128576633889 l -9.829428640913978 3.997543056689565 a31.611221319758954,31.611221319758954 0 0,0 -0.20011607848513582,-0.5044232432803849 l 9.896603394365238 -3.828218796195615" fill="#ff1402" stroke="none" /><path d="M 80.16572619554312 106.89939002012753 l -9.094204218460039 3.163436304471394 a30.62870082718868,30.62870082718868 0 0,0 -0.16847911732565643,-0.49807857359603785 l 9.147168757358061 -3.0068560564011944" fill="#ff0300" stroke="none" /><path d="M 79.83685265289637 105.86919833188381 l -10.75438296576063 3.1304441452761997 a32.20073361530112,32.20073361530112 0 0,0 -0.14993506139090781,-0.5320666385247587 l 10.806536519226114 -2.9453695828484454" fill="#ff1e03" stroke="none" /><path d="M 79.56144815229197 104.8234425847677 l -38.25008767396795 9.026916541467426 a60.30081970281094,60.30081970281094 0 0,0 -0.22911192625970378,-1.0095094210876865 l 38.399410461785315 -8.368972786440711" fill="#52ff2b" stroke="none" /><path d="M 79.407916724674 104.11899336999214 l -10.5977896109493 2.1198547305981927 a31.80772541827301,31.80772541827301 0 0,0 -0.10250222443455315,-0.536334951558815 l 10.632618127666012 -1.937617214006063" fill="#ff1702" stroke="none" /><path d="M 79.2786578344484 103.40968896794605 l -42.79220468773232 7.041440997022689 a64.36766852565782,64.36766852565782 0 0,0 -0.17004867639724272,-1.0918344871599217 l 42.90677485626783 -6.305818327931317" fill="#31ff3d" stroke="none" /><path d="M 79.17382384314188 102.69636545807758 l -40.83074847835568 5.28635785058591 a62.17153872066474,62.17153872066474 0 0,0 -0.12794877131113402,-1.0595993725489345 l 40.91547933592648 -4.5846648011135755" fill="#3dff2e" stroke="none" /><path d="M 79.0935383218832 101.97986365728391 l -10.955214413805262 1.0374701950808392 a32.00422951678706,32.00422951678706 0 0,0 -0.04710165679590103,-0.5473926493994524 l 10.971409693298904 -0.8492564983057248" fill="#ff1a02" stroke="none" /><path d="M 79.03789590574601 101.26102812881392 l -11.768969622854733 0.7079919875812694 a32.79024591084328,32.79024591084328 0 0,0 -0.028977849782541372,-0.5621625442865187 l 11.779389062093847 -0.5058576499180198" fill="#ff2703" stroke="none" /><path d="M 79.00696218219943 100.54070618675478 l -39.8841788596676 1.0272749685026505 a60.89740614589961,60.89740614589961 0 0,0 -0.017946083971319787,-1.045269421655938 l 39.89593637523758 -0.34245863087766026" fill="#4bff2c" stroke="none" /><line stroke="#e1ed5e" stroke-width="0.3" x1="15.003131293944662" x2="10.003315487706104" y1="100.72959589197737" y2="100.7725132973878" /><path d="M 14.003168132696942 100.73817937305945 a86.0,86.0 0 0,1 10.791469493833604,-42.45332614584628" fill="none" id="id46" stroke="none" /><text fill="#e1ed5e" style="font-size:6.75px; font-family:Arial;" text-anchor="middle"><textPath startOffset="22.145653131862435" xlink:href="#id46">October</textPath></text><path d="M 79.00696218219943 99.45929381324524 l -39.375794854423106 -1.0141807998897554 a60.388853538945234,60.388853538945234 0 0,0 0.03558718878313342,-1.0360821723921771 l 39.35258297864313 1.689969236846071" fill="#51ff2b" stroke="none" /><path d="M 79.03789590574601 98.7389718711861 l -10.59207266056926 -0.6371927888231386 a31.611221319758954,31.611221319758954 0 0,0 0.03723506658025343,-0.5413896961030622 l 10.579573632823942 0.8189259090805258" fill="#ff1402" stroke="none" /><path d="M 79.17382384314186 97.30363454192245 l -39.165714519788146 -5.07078586950813 a60.492607702960655,60.492607702960655 0 0,0 0.1421734237150371,-1.0286960703901875 l 39.0728965795179 5.742370248098385" fill="#50ff2b" stroke="none" /><path d="M 79.34024301695615 96.23510406497455 l -38.716649048435045 -7.05546317606221 a60.354268817606766,60.354268817606766 0 0,0 0.19449510226127195,-1.017680560838303 l 38.58982765389161 7.719046301933827" fill="#52ff2b" stroke="none" /><path d="M 79.48165901384962 95.52812308129327 l -39.05680836889109 -8.512249600544564 a60.97364973612307,60.97364973612307 0 0,0 0.23166833238715073,-1.0207734181737964 l 38.90492917494628 9.181457352657368" fill="#4bff2c" stroke="none" /><path d="M 79.73907114497095 94.47779374421319 l -38.005640996318306 -10.358606457125124 a60.39199760452147,60.39199760452147 0 0,0 0.28120098059039705,-0.9978830775446268 l 37.82222152365333 11.009497458572763" fill="#51ff2b" stroke="none" /><path d="M 79.94057633289273 93.78553927170692 l -37.59687240821935 -11.647607177799744 a60.35977093236516,60.35977093236516 0 0,0 0.31512193532330973,-0.9871149741651626 l 37.39138575711878 12.291291185656299" fill="#52ff2b" stroke="none" /><path d="M 80.16572619554312 93.10060997987247 l -29.738418986373247 -10.34456583547061 a52.486244713104014,52.486244713104014 0 0,0 0.30332008254353743,-0.8484402548064516 l 29.556458733785764 10.853541046657982" fill="#b3ff20" stroke="none" /><path d="M 80.41425534168474 92.42381321644754 l -36.78017670385872 -14.227362477238977 a60.43601452258861,60.43601452258861 0 0,0 0.38259256430471683,-0.9643831900087895 l 36.530525464587875 14.85664668446135" fill="#51ff2b" stroke="none" /><path d="M 80.68587082218212 91.75594674310238 l -43.42263290020619 -18.534539915739487 a68.21286072538085,68.21286072538085 0 0,0 0.4689345666399917,-1.0730140584137797 l 43.09806445154922 19.277216043929133" fill="#36ff71" stroke="none" /><path d="M 80.83023694016515 91.42560881287825 l -35.945189205694746 -16.07782592735853 a60.37706329303439,60.37706329303439 0 0,0 0.4313094028754889,-0.9424888842370861 l 35.66389533796421 16.69250379381029" fill="#52ff2b" stroke="none" /><path d="M 81.1358732173502 90.77261029715801 l -35.382682237232736 -17.3074429310483 a60.388853538945234,60.388853538945234 0 0,0 0.4634990787833492,-0.9273086432905525 l 35.08036324523764 17.912283430502622" fill="#51ff2b" stroke="none" /><path d="M 81.46374523516351 90.13048839642627 l -34.735097308887184 -18.494482854845927 a60.351910768424595,60.351910768424595 0 0,0 0.4947553380182711,-0.9102940964985498 l 34.41249662125356 19.088031784819094" fill="#52ff2b" stroke="none" /><line stroke="#e1ed5e" stroke-width="0.3" x1="26.387840678322718" x2="22.05771365940052" y1="57.49999999999999" y2="54.99999999999999" /><path d="M 25.521815274538284 56.99999999999999 a86.0,86.0 0 0,1 29.574782752854787,-30.34633250058573" fill="none" id="id47" stroke="none" /><text fill="#e1ed5e" style="font-size:6.75px; font-family:Arial;" text-anchor="middle"><textPath startOffset="21.40746469413373" xlink:href="#id47">November</textPath></text><path d="M 81.81346652052679 89.5 l -40.94267429688494 -23.638264026649697 a68.27652805329939,68.27652805329939 0 0,0 0.5947415220004882,-1.0100011272727885 l 40.53085906475467 24.33761632221606" fill="#36ff72" stroke="none" /><path d="M 82.18462484594161 88.88188828441811 l -33.41491426226821 -20.853377856028896 a60.38806752255119,60.38806752255119 0 0,0 0.5563820334530871,-0.8747249691876705 l 33.05201453718923 21.42391649989524" fill="#51ff2b" stroke="none" /><path d="M 82.576782715395 88.27688183743585 l -32.66046217942088 -21.975416544430058 a60.36527304712355,60.36527304712355 0 0,0 0.585860104140463,-0.8547874005822661 l 32.2784123384651 22.53283868008236" fill="#52ff2b" stroke="none" /><path d="M 82.98947788004972 87.6856937992154 l -31.88684990123705 -23.083620284751067 a60.36527304712355,60.36527304712355 0 0,0 0.6148576186690984,-0.8341724465494091 l 31.48589026298413 23.627599040569336" fill="#52ff2b" stroke="none" /><path d="M 83.42222388311158 87.10902102172516 l -31.252492782846822 -24.30212741695435 a60.58928771942957,60.58928771942957 0 0,0 0.6455170288739701,-0.8155896786046555 l 30.83070932333129 24.835037039473686" fill="#4fff2b" stroke="none" /><path d="M 83.8745106332314 86.54754324733833 l -30.3708687145424 -25.336458859047898 a60.55155893251487,60.55155893251487 0 0,0 0.6727146612892887,-0.7924561794818261 l 29.931459489745997 25.85408182097928" fill="#50ff2b" stroke="none" /><path d="M 84.34580500576568 86.00192230759919 l -29.4955337803554 -26.37508818488068 a60.56806527679006,60.56806527679006 0 0,0 0.6997119948432962,-0.7691060538328991 l 29.03842408467024 26.87753181427124" fill="#4fff2b" stroke="none" /><path d="M 84.83555147118756 85.47280134310135 l -34.22203447796118 -32.78393489614815 a68.3912864468316,68.3912864468316 0 0,0 0.8194357312523365,-0.8408132486127478 l 33.654211945558046 33.36657083682863" fill="#37ff74" stroke="none" /><path d="M 85.34317274990677 84.96080404539775 l -27.62288302192215 -28.34351142366778 a60.577497473518726,60.577497473518726 0 0,0 0.7509518728467701,-0.719394906968602 l 27.13225866321008 28.813518460941953" fill="#4fff2b" stroke="none" /><path d="M 85.86807049272753 84.46653392183569 l -26.624646170923395 -29.265150093363797 a60.56413519481978,60.56413519481978 0 0,0 0.775033392716398,-0.6930396388600588 l 26.118347751383606 29.71788526210726" fill="#4fff2b" stroke="none" /><path d="M 86.40962598614128 83.9905735841838 l -30.60822641621091 -36.056413755005885 a68.2961784631508,68.2961784631508 0 0,0 0.9002921465361338,-0.7510557286402102 l 29.98475993551287 36.57653166755798" fill="#36ff72" stroke="none" /><path d="M 86.68645165197937 83.75963576809568 l -6.6027067264765265 -8.054228621204933 a31.4147172212449,31.4147172212449 0 0,0 0.41998369806534797,-0.33830913807535373 l 6.4634722580559325 8.166386053073685" fill="#ff1101" stroke="none" /><path d="M 86.96720088162412 83.53348406188908 l -24.428998280089285 -30.86524129448129 a60.36291499794138,60.36291499794138 0 0,0 0.8180326343448647,-0.6361071242927226 l 23.895555701109178 31.280049470394818" fill="#52ff2b" stroke="none" /><path d="M 87.54013794807813 83.0958041407739 l -23.363931918897407 -31.697660821031917 a60.377849309428456,60.377849309428456 0 0,0 0.8395942167205771,-0.607801465245989 l 22.816356691802863 32.094063057650985" fill="#52ff2b" stroke="none" /><path d="M 88.4268655584334 82.4767994020092 l -27.404378384970958 -41.49372169896657 a70.72654115357263,70.72654115357263 0 0,0 1.0188473752247835,-0.6604045592559346 l 26.688045377489146 41.95804009992641" fill="#3aff92" stroke="none" /><path d="M 89.03521579738668 82.08984904055464 l -24.662864164084468 -40.284935125834075 a68.2348691844144,68.2348691844144 0 0,0 1.004245853594811,-0.60302078075667 l 23.967685553932224 40.702369907126666" fill="#36ff72" stroke="none" /><line stroke="#e1ed5e" stroke-width="0.3" x1="56.869717070023135" x2="54.33264160355391" y1="26.7553504044142" y2="22.446841604673864" /><path d="M 56.362301976729285 25.89364864446614 a86.0,86.0 0 0,1 42.16139366436587,-11.88097634709845" fill="none" id="id48" stroke="none" /><text fill="#e1ed5e" style="font-size:6.75px; font-family:Arial;" text-anchor="middle"><textPath startOffset="22.145653131862474" xlink:href="#id48">December</textPath></text><path d="M 89.34428304082924 81.90426304109057 l -20.401288838398862 -34.645848595356334 a61.20631058876371,61.20631058876371 0 0,0 0.9099557704898953,-0.5253632090429916 l 19.803540600048567 34.9909587016755" fill="#48ff2c" stroke="none" /><path d="M 89.97174638481275 81.54914285379989 l -22.723376337531203 -41.80845307384093 a68.58464647976942,68.58464647976942 0 0,0 1.0392572178660684,-0.5533459321180878 l 22.002330303878573 42.192369473681595" fill="#37ff76" stroke="none" /><path d="M 90.61103034731259 81.2157712731953 l -21.10365705667492 -42.22145089276774 a68.20185649586405,68.20185649586405 0 0,0 1.0517367717850399,-0.5144571582817989 l 20.375760035627824 42.57750180114676" fill="#36ff71" stroke="none" /><path d="M 91.26138138417902 80.90454125486306 l -16.42207446431634 -35.885196417106556 a60.46431111277464,60.46431111277464 0 0,0 0.9475235425134381,-0.42381522855336023 l 15.803637518947282 36.16181539656976" fill="#51ff2b" stroke="none" /><path d="M 91.92203290615298 80.6158196554323 l -18.205888033420848 -43.68750365938537 a68.32919115170115,68.32919115170115 0 0,0 1.0865823121702953,-0.44190356695383565 l 17.45325126006011 43.993594482918496" fill="#36ff73" stroke="none" /><path d="M 92.592206182469 80.34994680014964 l -16.687152865751603 -44.264655529430485 a68.30561065987948,68.30561065987948 0 0,0 1.100731411913939,-0.40420382117352466 l 15.924832302183535 44.544590199612735" fill="#36ff73" stroke="none" /><path d="M 93.27111125876988 80.10723608172694 l -15.200382610302878 -44.93723025637361 a68.43844743047498,68.43844743047498 0 0,0 1.116124386458414,-0.36689225487612287 l 14.426735486196703 45.19154343265176" fill="#37ff74" stroke="none" /><path d="M 94.30408787586887 79.78721728523814 l -12.808500374505899 -45.452849224096184 a68.22307893850356,68.22307893850356 0 0,0 1.1299645590625338,-0.30797686530168983 l 12.026354414508686 45.66602658354201" fill="#36ff71" stroke="none" /><path d="M 94.6519064749342 79.69241777938228 l -10.246392307053318 -38.90722053848708 a61.23382116255567,61.23382116255567 0 0,0 1.0187987137990846,-0.25897464906634987 l 9.576988300028855 39.077380419388696" fill="#48ff2c" stroke="none" /><path d="M 95.35216902796891 79.52079915486377 l -11.235201095433021 -49.50436906020261 a71.76329677733278,71.76329677733278 0 0,0 1.2037014396329861,-0.26234112633873197 l 10.383737239180917 49.68994164467506" fill="#3bff9f" stroke="none" /><path d="M 96.05791012581881 79.37332000966035 l -8.91629108832934 -46.65380264012556 a68.49818467642325,68.49818467642325 0 0,0 1.156853662834944,-0.21081727419162288 l 8.114102691943357 46.79998808824855" fill="#37ff75" stroke="none" /><path d="M 96.41257539226777 79.30868818359171 l -7.191230762874092 -41.47710804504856 a63.095894000074864,63.095894000074864 0 0,0 1.0687918552764415,-0.1758692930627396 l 6.4781614045445775 41.59444333660697" fill="#32ff2f" stroke="none" /><path d="M 97.12497278360702 79.19773525538626 l -5.6813989937748985 -41.10777293321207 a62.49852154059214,62.49852154059214 0 0,0 1.0640289309427442,-0.13775984771186947 l 4.974892240941361 41.19924437712434" fill="#39ff2e" stroke="none" /><path d="M 97.84075906011542 79.11130261209362 l -6.477722819653731 -62.666092163719114 a84.0,84.0 0 0,0 1.4356017464599378,-0.1359529779792652 l 5.4010215098087775 62.76805689720356" fill="#4dd2ff" stroke="none" /></svg>