<?xml version="1.0" encoding="utf-8" ?>
<svg baseProfile="full" height="200mm" version="1.1" viewBox="0,0,200,200" width="200mm" xmlns="http://www.w3.org/2000/svg" xmlns:ev="http://www.w3.org/2001/xml-events" xmlns:xlink="http://www.w3.org/1999/xlink"><defs /><rect fill="#1a1a1a" height="200" width="200" x="0" y="0" /><text alignment-baseline="middle" fill="#e1ed5e" style="dominant-baseline: central; font-size:9.0px; font-family:Arial;" text-anchor="middle" x="100.0" y="100.0">2018</text><line stroke="#e1ed5e" stroke-width="0.3" x1="100.0" x2="100.0" y1="15.0" y2="10.0" /><path d="M 100.0 14.0 a86.0,86.0 0 0,1 42.46469731375804,11.215312516191453" fill="none" id="id13" stroke="none" /><text fill="#e1ed5e" style="font-size:6.75px; font-family:Arial;" text-anchor="middle"><textPath startOffset="22.20632615414155" xlink:href="#id13">January</textPath></text><line stroke="#e1ed5e" stroke-width="0.3" x1="143.23703022742887" x2="145.7803849466894" y1="26.81831364943548" y2="22.513508569990506" /><path d="M 143.74570117128098 25.957352633546492 a86.0,86.0 0 0,1 28.547481713284135,27.462654790039103" fill="none" id="id14" stroke="none" /><text fill="#e1ed5e" style="font-size:6.75px; font-family:Arial;" text-anchor="middle"><textPath startOffset="19.985693538727396" xlink:href="#id14">February</textPath></text><line stroke="#e1ed5e" stroke-width="0.3" x1="172.23445277983987" x2="176.4835382374775" y1="55.19839476539836" y2="52.563006222186495" /><path d="M 173.08426987136738 54.67131705675599 a86.0,86.0 0 0,1 12.851231095245387,41.99856678651699" fill="none" id="id15" stroke="none" /><text fill="#e1ed5e" style="font-size:6.75px; font-family:Arial;" text-anchor="middle"><textPath startOffset="22.20632615414155" xlink:href="#id15">March</textPath></text><line stroke="#e1ed5e" stroke-width="0.3" x1="184.98032266829074" x2="189.97916517819016" y1="98.17113171792111" y2="98.06355123074" /><path d="M 185.9800911702706 98.14961562048488 a86.0,86.0 0 0,1 -9.607161424134198,41.387399972396054" fill="none" id="id16" stroke="none" /><text fill="#e1ed5e" style="font-size:6.75px; font-family:Arial;" text-anchor="middle"><textPath startOffset="21.466115282336823" xlink:href="#id16">April</textPath></text><line stroke="#e1ed5e" stroke-width="0.3" x1="174.80103733775053" x2="179.2010983576182" y1="140.37084112569926" y2="142.7455964860345" /><path d="M 175.68104954172406 140.8457921977663 a86.0,86.0 0 0,1 -30.038265399797805,32.042727171017184" fill="none" id="id17" stroke="none" /><text fill="#e1ed5e" style="font-size:6.75px; font-family:Arial;" text-anchor="middle"><textPath startOffset="22.206326154141568" xlink:href="#id17">May</textPath></text><line stroke="#e1ed5e" stroke-width="0.3" x1="143.8653032363475" x2="146.44561519142675" y1="172.8068346515853" y2="177.08958963109032" /><path d="M 144.38136562736335 173.6633856474863 a86.0,86.0 0 0,1 -40.68145358897372,12.25698825130547" fill="none" id="id18" stroke="none" /><text fill="#e1ed5e" style="font-size:6.75px; font-family:Arial;" text-anchor="middle"><textPath startOffset="21.466115282336833" xlink:href="#id18">June</textPath></text><path d="M 106.2309692047433 120.05430185196036 l 18.692907614229917 60.16290555588107 a84.0,84.0 0 0,0 -1.3845001022390167,0.4171385235770977 l -17.654532537550654 -60.47575944856389" fill="#4dd2ff" stroke="none" /><path d="M 104.83641907484287 120.43548508189849 l 9.672838149685731 40.870970163797 a63.0,63.0 0 0,0 -1.057439551821414,0.24066979926694676 l -8.967878448471456 -41.03141669664163" fill="#ff0000" stroke="none" /><path d="M 103.7750983002368 120.6578951692458 l 9.815255580615705 53.71052744003909 a75.6,75.6 0 0,0 -1.2821437027006202,0.22291711732437774 l -8.889262906443035 -53.871523135884466" fill="#38ff2e" stroke="none" /><path d="M 102.70371172650421 120.8252237178851 l 5.407423453008415 41.65044743577018 a63.0,63.0 0 0,0 -1.076617730845859,0.13036341382394723 l -4.6896782991111765 -41.737356378319475" fill="#ff0000" stroke="none" /><path d="M 101.98527174616119 120.90594882070398 l 4.36759784155462 45.993087405548756 a67.2,67.2 0 0,0 -1.1524981832270667,0.0994423927082771 l -3.5752553405860117 -46.0614540505357" fill="#ffab0f" stroke="none" /><path d="M 101.26447882468166 120.96189622390904 l 2.7818534142996585 46.11617169259987 a67.2,67.2 0 0,0 -1.1552381810768653,0.05971261836095394 l -1.9876271648093133 -46.157224117723025" fill="#ffab0f" stroke="none" /><line stroke="#e1ed5e" stroke-width="0.3" x1="102.19456741930631" x2="102.32365962044197" y1="184.97166512339345" y2="189.96999836594603" /><path d="M 102.22038585953345 185.97133177190398 a86.0,86.0 0 0,1 -42.740103519485714,-10.115201625700543" fill="none" id="id19" stroke="none" /><text fill="#e1ed5e" style="font-size:6.75px; font-family:Arial;" text-anchor="middle"><textPath startOffset="22.20632615414155" xlink:href="#id19">July</textPath></text><path d="M 100.18074693466247 120.99922214144158 l 0.4337926431899104 50.39813313945979 a71.4,71.4 0 0,0 -1.2290791557046972,0.0 l 0.4337926431898757 -50.39813313945979" fill="#bbff1f" stroke="none" /><path d="M 99.45781275523022 120.99299961872073 l -1.1928119384935165 46.18459916118562 a67.2,67.2 0 0,0 -1.1560948746411424,-0.03981824503649989 l 1.9876271648093018 -46.157224117723025" fill="#ffab0f" stroke="none" /><path d="M 98.73552117531835 120.96189622390904 l -3.793436474044945 62.885688671727095 a84.0,84.0 0 0,0 -1.4425489568842798,-0.09948662193485935 l 4.875348191708155 -62.81107370527595" fill="#4dd2ff" stroke="none" /><path d="M 96.22490169976321 120.6578951692458 l -9.06023592056831 49.578948406189944 a71.4,71.4 0 0,0 -1.207110110456237,-0.23134552561520838 l 9.912313645596242 -49.41564568222626" fill="#bbff1f" stroke="none" /><path d="M 94.81253420990036 120.34920634021253 l -12.449917896239139 48.838095216510084 a71.4,71.4 0 0,0 -1.1883324944409366,-0.31384941236782243 l 13.288740833491564 -48.61655445483868" fill="#bbff1f" stroke="none" /><path d="M 94.11515582081647 120.15858648285463 l -15.300594865877196 52.41232485542205 a75.6,75.6 0 0,0 -1.246050092015115,-0.3754246712193879 l 16.200519932332558 -52.141184815096935" fill="#38ff2e" stroke="none" /><path d="M 93.76903079525671 120.05430185196036 l -13.708132250435243 44.119464074312795 a67.2,67.2 0 0,0 -1.1016916957089908,-0.352726890688939 l 14.465545291235173 -43.87696433696415" fill="#ffab0f" stroke="none" /><path d="M 90.42595943632237 118.69057910512821 l -22.977697352826315 44.85738985230771 a71.4,71.4 0 0,0 -1.089050931409915,-0.569739975587963 l 23.746439186762725 -44.455220457775035" fill="#bbff1f" stroke="none" /><path d="M 90.10565033884886 118.52300852407294 l -21.767569254532496 40.75061875296045 a67.2,67.2 0 0,0 -1.0156070020203503,-0.5537899143687494 l 22.46579906842149 -40.36988818683193" fill="#ffab0f" stroke="none" /><line stroke="#e1ed5e" stroke-width="0.3" x1="58.666819895761336" x2="56.23545636021788" y1="174.27360380694188" y2="178.64263932499728" /><path d="M 58.180547188652646 175.14741091055294 a86.0,86.0 0 0,1 -31.652253787137756,-30.449443065178592" fill="none" id="id20" stroke="none" /><text fill="#e1ed5e" style="font-size:6.75px; font-family:Arial;" text-anchor="middle"><textPath startOffset="22.20632615414155" xlink:href="#id20">August</textPath></text><path d="M 89.4739219176387 118.17145234162733 l -21.052156164722575 36.34290468325466 a63.0,63.0 0 0,0 -0.9336963869148537,-0.5516442831187515 l 21.67462042266581 -35.97514182784216" fill="#ff0000" stroke="none" /><path d="M 88.24862548938628 117.40417183066458 l -35.25412353184113 52.212515491993734 a84.0,84.0 0 0,0 -1.1913724615084296,-0.8194368425396048 l 36.147652877972455 -51.59793786008903" fill="#4dd2ff" stroke="none" /><path d="M 87.65650970185807 116.9893568818739 l -29.624376715540645 40.77445651649736 a71.4,71.4 0 0,0 -0.9880911005768814,-0.7309661742847854 l 30.32185278653609 -40.2584803934728" fill="#bbff1f" stroke="none" /><path d="M 87.07902340077011 116.55440617244103 l -33.594539157997694 43.04145604834668 a75.6,75.6 0 0,0 -1.0189530262175108,-0.8095179095815296 l 34.33044967693256 -42.45680422476002" fill="#38ff2e" stroke="none" /><path d="M 86.24171649860922 115.8653595955263 l -30.268223703059714 34.903791110157854 a67.2,67.2 0 0,0 -0.8673844706989193,-0.7653659463286758 l 30.864550526665223 -34.377602022056884" fill="#ffab0f" stroke="none" /><path d="M 85.70375840098266 115.38237550388516 l -40.02947647724854 43.070651410878455 a79.8,79.8 0 0,0 -0.9981238293149044,-0.9437883803654719 l 40.764936140954255 -42.37522839376705" fill="#3effb2" stroke="none" /><line stroke="#e1ed5e" stroke-width="0.3" x1="26.63291911575756" x2="22.317208475507996" y1="142.92168965132927" y2="145.44649492493687" /><path d="M 25.769776987707644 143.4266507060508 a86.0,86.0 0 0,1 -11.730757126820373,-40.83630448921669" fill="none" id="id21" stroke="none" /><text fill="#e1ed5e" style="font-size:6.75px; font-family:Arial;" text-anchor="middle"><textPath startOffset="21.46611528233685" xlink:href="#id21">September</textPath></text><path d="M 79.97269907076064 106.31721596034903 l -40.05460185847871 12.634431920698056 a63.0,63.0 0 0,0 -0.3173196824816089,-1.0370190823438565 l 40.26614831346645 -11.943085865802152" fill="#ff0000" stroke="none" /><path d="M 79.4281124754447 104.21870165774334 l -49.3725300589327 10.12488397858402 a71.4,71.4 0 0,0 -0.23653822788273407,-1.2061033279689537 l 49.539498219791106 -9.273516923547112" fill="#bbff1f" stroke="none" /><line stroke="#e1ed5e" stroke-width="0.3" x1="15.007084014347285" x2="10.007500721073583" y1="101.09737516637583" y2="101.16192664675087" /><path d="M 14.007167355692545 101.11028546245083 a86.0,86.0 0 0,1 10.666146001902534,-42.60595125391555" fill="none" id="id22" stroke="none" /><text fill="#e1ed5e" style="font-size:6.75px; font-family:Arial;" text-anchor="middle"><textPath startOffset="22.20632615414155" xlink:href="#id22">October</textPath></text><path d="M 79.16333360222342 97.38593545837743 l -41.67333279555316 -5.228129083245125 a63.0,63.0 0 0,0 0.14425200282649842,-1.0748449738060217 l 41.57716479366883 5.944692399115806" fill="#ff0000" stroke="none" /><path d="M 79.32604984820605 96.31383870115002 l -41.34790030358788 -7.3723225976999665 a63.0,63.0 0 0,0 0.19954282827041514,-1.065965767612282 l 41.2148717514076 8.08296644277482" fill="#ff0000" stroke="none" /><path d="M 79.3925641242962 95.95851677861259 l -41.2148717514076 -8.08296644277482 a63.0,63.0 0 0,0 0.21786211225501628,-1.0623730315097926 l 41.06963034323759 8.791215130448016" fill="#ff0000" stroke="none" /><path d="M 80.38941819471856 92.48833698450439 l -39.22116361056287 -15.023326030991234 a63.0,63.0 0 0,0 0.3966193503549267,-1.00935298531271 l 38.956750710326254 15.696228021199708" fill="#ff0000" stroke="none" /><line stroke="#e1ed5e" stroke-width="0.3" x1="26.266209847984243" x2="21.928928074336255" y1="57.711370442889674" y2="55.22380399835377" /><path d="M 25.398753493254645 57.213857153982495 a86.0,86.0 0 0,1 29.58750427330803,-30.492523968695096" fill="none" id="id23" stroke="none" /><text fill="#e1ed5e" style="font-size:6.75px; font-family:Arial;" text-anchor="middle"><textPath startOffset="21.46611528233685" xlink:href="#id23">November</textPath></text><path d="M 83.17141714833178 87.43820079747577 l -33.65716570333643 -25.123598405048465 a63.0,63.0 0 0,0 0.6561721793276735,-0.8634456723569273 l 33.21971758378465 25.699228853286414" fill="#ff0000" stroke="none" /><line stroke="#e1ed5e" stroke-width="0.3" x1="56.76296977257108" x2="54.21961505331056" y1="26.818313649435495" y2="22.513508569990535" /><path d="M 56.25429882871898 25.957352633546506 a86.0,86.0 0 0,1 42.26535254187918,-11.944610805530505" fill="none" id="id24" stroke="none" /><text fill="#e1ed5e" style="font-size:6.75px; font-family:Arial;" text-anchor="middle"><textPath startOffset="22.20632615414155" xlink:href="#id24">December</textPath></text><path d="M 90.91171255644093 81.06846463323043 l -18.176574887118132 -37.86307073353912 a63.0,63.0 0 0,0 0.9816653661011746,-0.46090505207997723 l 17.52213130971735 38.1703407682591" fill="#ff0000" stroke="none" /><path d="M 94.63758080256005 79.69619591428918 l -10.7248383948799 -40.607608171421646 a63.0,63.0 0 0,0 1.0508733339450018,-0.26789101149341044 l 10.024256172249899 40.78620217908392" fill="#ff0000" stroke="none" /><path d="M 95.33964822691252 79.52364482259891 l -9.320703546174967 -40.95271035480218 a63.0,63.0 0 0,0 1.0594718275394372,-0.23155950571239536 l 8.61438899448201 41.10708335861044" fill="#ff0000" stroke="none" /></svg>