<?xml version="1.0" encoding="utf-8" ?>
<svg baseProfile="full" height="200mm" version="1.1" viewBox="0,0,200,200" width="200mm" xmlns="http://www.w3.org/2000/svg" xmlns:ev="http://www.w3.org/2001/xml-events" xmlns:xlink="http://www.w3.org/1999/xlink"><defs /><rect fill="#1a1a1a" height="200" width="200" x="0" y="0" /><text alignment-baseline="middle" fill="#e1ed5e" style="dominant-baseline: central; font-size:9.0px; font-family:Arial;" text-anchor="middle" x="100.0" y="100.0">2020</text><line stroke="#e1ed5e" stroke-width="0.3" x1="100.0" x2="100.0" y1="15.0" y2="10.0" /><path d="M 100.0 14.0 a86.0,86.0 0 0,1 42.35913384403234,11.155469271406648" fill="none" id="id37" stroke="none" /><text fill="#e1ed5e" style="font-size:6.75px; font-family:Arial;" text-anchor="middle"><textPath startOffset="22.145653131862478" xlink:href="#id37">January</textPath></text><path d="M 100.0 79.0 l 0.0 -59.93683611532626 a80.93683611532626,80.93683611532626 0 0,0 1.3893884180583993,0.01192622854945428 l -1.0288954932095444 59.92800428497124" fill="#48f4ff" stroke="none" /><path d="M 101.08105385017728 79.02784411241856 l 3.087883093011584 -59.904107069824924 a80.98363998482549,80.98363998482549 0 0,0 1.3877342968290858,0.08348264924898488 l -4.115761741973132 59.842272442751245" fill="#48f4ff" stroke="none" /><path d="M 101.44090949804482 79.04949213459386 l 4.114395173784547 -59.82240284120971 a80.96372344461305,80.96372344461305 0 0,0 1.3857558335446316,0.10726626564876485 l -5.140720002104412 59.74295880856589" fill="#48f4ff" stroke="none" /><path d="M 102.87502721639298 79.19773525538626 l 8.201080575441166 -59.338933680173305 a80.90297799696509,80.90297799696509 0 0,0 1.3740981491948359,0.20194510826309722 l -9.218503830243684 59.189407498611324" fill="#48f5ff" stroke="none" /><path d="M 103.94208987418118 79.37332000966035 l 11.248452864145666 -58.85665852895999 a80.92189871016693,80.92189871016693 0 0,0 1.3621988376929492,0.27247791814204303 l -12.257148187369573 58.654891214155086" fill="#48f5ff" stroke="none" /><path d="M 106.04205211174951 79.88797359093562 l 17.302135950508784 -57.593183364500206 a81.1360015174507,81.1360015174507 0 0,0 1.3304734349464655,0.4121840711241301 l -18.28825001832688 57.28768270556943" fill="#49f2ff" stroke="none" /><path d="M 106.72888874123014 80.10723608172694 l 19.19749915721594 -56.75399508625664 a80.91293626707132,80.91293626707132 0 0,0 1.311923226944147,0.4563549998547462 l -20.168928156205105 56.4160816538333" fill="#48f5ff" stroke="none" /><path d="M 108.07796709384702 80.6158196554323 l 23.037988285192892 -55.282785199307206 a80.89102807283763,80.89102807283763 0 0,0 1.277172744874145,0.5451490994009299 l -23.983596105237467 54.879161450246876" fill="#48f5ff" stroke="none" /><path d="M 109.3889696526874 81.21577127319529 l 26.77868781916426 -53.575313970143974 a80.89501138088013,80.89501138088013 0 0,0 1.2368183835033735,0.6315282792967096 l -27.694433424381213 53.107727739174436" fill="#48f5ff" stroke="none" /><path d="M 109.71004243097381 81.37971332152246 l 27.71054929525963 -53.13863204654102 a80.9298653262519,80.9298653262519 0 0,0 1.2263232516048035,0.6529480585477145 l -28.61866136265099 52.65511352027073" fill="#48f5ff" stroke="none" /><path d="M 110.02825361518725 81.54914285379988 l 28.623892337127803 -52.664737924131124 a80.94081942336874,80.94081942336874 0 0,0 1.215098273267838,0.6739945292865084 l -29.52373479855174 52.16561047941147" fill="#48f4ff" stroke="none" /><line stroke="#e1ed5e" stroke-width="0.3" x1="143.13028292997686" x2="145.6673583964461" y1="26.7553504044142" y2="22.446841604673864" /><path d="M 143.63769802327073 25.89364864446614 a86.0,86.0 0 0,1 29.32050498858742,28.57503671076993" fill="none" id="id38" stroke="none" /><text fill="#e1ed5e" style="font-size:6.75px; font-family:Arial;" text-anchor="middle"><textPath startOffset="20.669276256404974" xlink:href="#id38">February</textPath></text><path d="M 110.65571695917076 81.90426304109057 l 30.419424158717693 -51.658832542835114 a80.94978186646435,80.94978186646435 0 0,0 1.19137742565453,0.71538791305176 l -31.30173434092966 51.12903062924743" fill="#48f4ff" stroke="none" /><path d="M 110.96478420261332 82.08984904055464 l 31.268457302378476 -51.074675087640614 a80.88604893778452,80.88604893778452 0 0,0 1.1779931069354892,0.7351548227212386 l -32.14061453810368 50.53038446807783" fill="#48f5ff" stroke="none" /><line stroke="#e1ed5e" stroke-width="0.3" x1="172.87174338648825" x2="177.1583165268699" y1="56.24261187166439" y2="53.66864786411523" /><path d="M 173.72905801456457 55.72781907015455 a86.0,86.0 0 0,1 12.242430191666344,42.057860355516425" fill="none" id="id39" stroke="none" /><text fill="#e1ed5e" style="font-size:6.75px; font-family:Arial;" text-anchor="middle"><textPath startOffset="22.145653131862474" xlink:href="#id39">March</textPath></text><path d="M 119.16976305983485 91.42560881287824 l 45.55818547371696 -20.37759688566869 a70.90786229135054,70.90786229135054 0 0,0 0.4874615625465492,1.1154074507592304 l -45.90128091828048 19.59252736513361" fill="#39ff8c" stroke="none" /><path d="M 119.58574465831526 92.42381321644754 l 46.533790051952295 -18.000269651760647 a70.89392071320182,70.89392071320182 0 0,0 0.4293110199433876,1.1387984856173046 l -46.83593175571013 17.198802885949185" fill="#39ff8c" stroke="none" /><path d="M 119.94978838288452 93.4421083053983 l 47.569006508752956 -15.636877279953373 a71.07316957511381,71.07316957511381 0 0,0 0.37105367366565717,1.162320347895107 l -47.83042489819587 14.817987898366878" fill="#3aff8e" stroke="none" /><path d="M 120.16314734710363 94.1308016681162 l 57.53495961990773 -16.74758822186911 a80.92289453717754,80.92289453717754 0 0,0 0.37679822159689463,1.3371239609158452 l -57.813976333579205 15.757456337050249" fill="#48f5ff" stroke="none" /><path d="M 120.43855184770803 95.1765574152323 l 58.692023152582294 -13.851157653915875 a81.30429628224583,81.30429628224583 0 0,0 0.3089142739057439,1.3611332893374526 l -58.92114828804571 12.841590030639397" fill="#49f0ff" stroke="none" /><path d="M 120.592083275326 95.88100663000786 l 58.6749383463481 -11.736630956756805 a80.83725341426404,80.83725341426404 0 0,0 0.26050269810810084,1.3630601944639444 l -58.86776733673836 10.727668197259547" fill="#48f6ff" stroke="none" /><path d="M 120.82617615685814 97.30363454192243 l 60.09153739645044 -7.780052590461208 a81.59308611532626,81.59308611532626 0 0,0 0.1679182360733336,1.3906038780956071 l -60.21623771878343 6.7473550354421885" fill="#49edff" stroke="none" /><path d="M 120.93736805541906 98.37931529534042 l 59.73424751926367 -4.623808543775549 a80.91293626707132,80.91293626707132 0 0,0 0.09530788255956232,1.3857556952111172 l -59.8048193629883 3.5977094244100982" fill="#48f5ff" stroke="none" /><path d="M 120.99303781780057 99.45929381324524 l 59.84429383616663 -1.5413767268950358 a80.86414074355085,80.86414074355085 0 0,0 0.023830155533645796,1.3879870913583037 l -59.86193542329894 0.5138427195676656" fill="#48f5ff" stroke="none" /><line stroke="#e1ed5e" stroke-width="0.3" x1="184.99686870605535" x2="189.99668451229388" y1="99.2704041080226" y2="99.22748670261217" /><path d="M 185.99683186730306 99.26182062694052 a86.0,86.0 0 0,1 -10.086455211305974,41.156179273409016" fill="none" id="id40" stroke="none" /><text fill="#e1ed5e" style="font-size:6.75px; font-family:Arial;" text-anchor="middle"><textPath startOffset="21.40746469413373" xlink:href="#id40">April</textPath></text><path d="M 120.99303781780057 100.54070618675476 l 59.90203265414047 1.5428638740323337 a80.92189871016693,80.92189871016693 0 0,0 -0.04768732501656456,1.3883644364214627 l -59.86672064212706 -2.570934575017907" fill="#48f5ff" stroke="none" /><path d="M 120.98066250479742 100.90099992219065 l 59.85776645194575 2.5705500435640127 a80.91293626707132,80.91293626707132 0 0,0 -0.07150549950087999,1.3871875874693609 l -59.8048193629883 -3.597709424410104" fill="#48f5ff" stroke="none" /><path d="M 120.9064616781168 101.97986365728391 l 59.59947632318606 5.644132373147618 a80.86613239757207,80.86613239757207 0 0,0 -0.14273876463042048,1.3808680656304322 l -59.493805166073976 -6.666404961060981" fill="#48f5ff" stroke="none" /><path d="M 120.77682067341334 103.0534771498775 l 59.361922533849935 8.724158372404615 a80.99957321699546,80.99957321699546 0 0,0 -0.21398740283409798,1.3739526304001206 l -59.20341363887757 -9.741899184736186" fill="#48f4ff" stroke="none" /><path d="M 120.65975698304385 103.76489593502545 l 58.892259651067654 10.732131512812254 a80.8621490895296,80.8621490895296 0 0,0 -0.2605829258533947,1.3634799799283872 l -58.6993504329321 -11.741514057773957" fill="#48f5ff" stroke="none" /><path d="M 120.51834098615036 104.47187691870673 l 58.57379207920392 12.765885361634336 a80.94878603945372,80.94878603945372 0 0,0 -0.3075635188590954,1.3551816133708836 l -58.34601769878716 -13.769501308944236" fill="#48f4ff" stroke="none" /><path d="M 120.26092885502905 105.52220625578681 l 57.88891717437456 15.777881796456118 a81.00056904400607,81.00056904400607 0 0,0 -0.37715989447333487,1.338407410362732 l -57.60953878782665 -16.769297130721856" fill="#48f4ff" stroke="none" /><path d="M 119.94978838288452 106.5578916946017 l 56.89114301885084 18.701248711981307 a80.88604893778452,80.88604893778452 0 0,0 -0.4449294211297731,1.3153547747930727 l -56.5617281761487 -19.675105161248542" fill="#48f5ff" stroke="none" /><path d="M 119.71291397450082 107.23885506374661 l 56.20349202403679 20.63870077070851 a80.87310318664643,80.87310318664643 0 0,0 -0.48974177285952425,1.2990982373326994 l -55.840919567362825 -21.600467288235368" fill="#48f5ff" stroke="none" /><path d="M 119.4528033332814 107.91128576633889 l 55.45912316010105 22.55474258147099 a80.87011570561458,80.87011570561458 0 0,0 -0.534028333224419,1.2814735935500414 l -55.06376898234015 -23.503448684462306" fill="#48f5ff" stroke="none" /><path d="M 119.16976305983485 108.57439118712176 l 54.70127523357179 24.467184639845033 a80.92389036418817,80.92389036418817 0 0,0 -0.5780876532854504,1.263225850639593 l -54.273203115431286 -25.402599472699315" fill="#48f5ff" stroke="none" /><path d="M 118.8641267826498 109.22738970284198 l 53.78083110298225 26.306899484283107 a80.87011570561458,80.87011570561458 0 0,0 -0.6206977270480099,1.2418112430196497 l -53.32131346272251 -27.226242583466504" fill="#48f5ff" stroke="none" /><line stroke="#e1ed5e" stroke-width="0.3" x1="174.33088141563837" x2="178.70328620479359" y1="141.23008692659167" y2="143.65538615756765" /><path d="M 175.20536237346943 141.71514677278685 a86.0,86.0 0 0,1 -30.301960400862466,31.631185727798858" fill="none" id="id41" stroke="none" /><text fill="#e1ed5e" style="font-size:6.75px; font-family:Arial;" text-anchor="middle"><textPath startOffset="22.145653131862474" xlink:href="#id41">May</textPath></text><path d="M 118.36410011445183 110.18625677009912 l 52.40926769670215 29.070537329043784 a80.93185698027315,80.93185698027315 0 0,0 -0.6843236907884847,1.2091343909936552 l -51.90251064089229 -29.965928490136562" fill="#48f5ff" stroke="none" /><path d="M 117.81537515405839 111.11811171558189 l 50.78074663957204 31.69094163087593 a80.85816578148709,80.85816578148709 0 0,0 -0.7449821222046952,1.1712356343473003 l -50.22924682574145 -32.5579909399019" fill="#48f5ff" stroke="none" /><path d="M 117.21940702142032 112.02048342749411 l 49.11058497232093 34.28300243091834 a80.89301972685888,80.89301972685888 0 0,0 -0.8046347835837645,1.1318195902851655 l -48.51483509020721 -35.120999247913005" fill="#48f5ff" stroke="none" /><path d="M 116.79662413953412 112.60449989151573 l 47.99399583420748 36.01558921961171 a81.00455235204856,81.00455235204856 0 0,0 -0.8441755289307409,1.105052865768886 l -47.368668327922435 -36.83416299862147" fill="#48f4ff" stroke="none" /><path d="M 116.35404254752997 113.17365903436017 l 46.633217302165804 37.564418866376414 a80.88106980273142,80.88106980273142 0 0,0 -0.8802678936569931,1.0737837007041167 l -45.981502589270185 -38.35940484877902" fill="#48f5ff" stroke="none" /><path d="M 115.6541949942343 113.99807769240083 l 44.6242544519822 39.90328349777045 a80.86314491654021,80.86314491654021 0 0,0 -0.9341707082813767,1.0268172510226639 l -43.93268604285895 -40.663438324350786" fill="#48f5ff" stroke="none" /><path d="M 115.16444852881244 114.52719865689866 l 43.30223810031766 41.48256456384989 a80.96571509863429,80.96571509863429 0 0,0 -0.9700972653847418,0.9954052551893312 l -42.58375403378211 -42.21979251110696" fill="#48f4ff" stroke="none" /><path d="M 114.65682725009322 115.03919595460226 l 41.99242169936134 43.08792399398518 a81.16587632776935,81.16587632776935 0 0,0 -1.0061767055700812,0.9638945232982448 l -41.24657250792595 -43.802430647589" fill="#49f2ff" stroke="none" /><path d="M 113.86319453409587 115.77377054828091 l 39.518782066703295 44.96511962914258 a80.86314491654021,80.86314491654021 0 0,0 -1.0505297744829571,0.9074225984256447 l -38.74107281245748 -45.63688636003294" fill="#48f5ff" stroke="none" /><path d="M 113.31354834802062 116.24036423190432 l 37.93679439646051 46.27672072719704 a80.8392450682853,80.8392450682853 0 0,0 -1.0807407513325737,0.8705682476498049 l -37.13680287477269 -46.921137268640244" fill="#48f6ff" stroke="none" /><path d="M 112.7482090630111 116.68781488649013 l 36.3990144107057 47.64747828767343 a80.95974013657057,80.95974013657057 0 0,0 -1.1116428136638663,0.8341974915811293 l -35.57571860813107 -48.265294806518575" fill="#48f4ff" stroke="none" /><path d="M 112.16784306229584 117.11559508785304 l 34.726936395308954 48.847785013393164 a80.93384863429439,80.93384863429439 0 0,0 -1.139259187928449,0.7952913925014378 l -33.88328211620674 -49.43672122169973" fill="#48f5ff" stroke="none" /><path d="M 111.5731344415666 117.5232005979908 l 33.02744707074733 50.00776437726119 a80.9298653262519,80.9298653262519 0 0,0 -1.1658308114617357,0.7556774468212341 l -32.164130627028584 -50.567355665786316" fill="#48f5ff" stroke="none" /><path d="M 110.96478420261333 117.91015095944535 l 31.263777718832237 51.06703133960216 a80.87708649468894,80.87708649468894 0 0,0 -1.1903075324085373,0.7147454728980676 l -30.382537429866264 -51.59619081303615" fill="#48f5ff" stroke="none" /><line stroke="#e1ed5e" stroke-width="0.3" x1="143.1302829299769" x2="145.66735839644613" y1="173.24464959558577" y2="177.55315839532614" /><path d="M 143.63769802327073 174.10635135553383 a86.0,86.0 0 0,1 -40.68552437913181,11.842963189579606" fill="none" id="id42" stroke="none" /><text fill="#e1ed5e" style="font-size:6.75px; font-family:Arial;" text-anchor="middle"><textPath startOffset="21.407464694133747" xlink:href="#id42">June</textPath></text><path d="M 110.34350942703117 118.27599006163325 l 29.51245346713951 52.1456774477623 a80.91791540212444,80.91791540212444 0 0,0 -1.2147544339434861,0.6738038074093817 l -28.61295484503993 -52.644614170604825" fill="#48f5ff" stroke="none" /><path d="M 109.71004243097381 118.62028667847754 l 27.675554832780765 53.07152555054499 a80.85418247344461,80.85418247344461 0 0,0 -1.2361941429917065,0.6312095376435606 l -26.760433468075476 -53.53879303986138" fill="#48f5ff" stroke="none" /><path d="M 109.06512990194946 118.94263497670748 l 25.90534537562502 54.132208440882174 a81.01152314112292,81.01152314112292 0 0,0 -1.2595798386683943,0.5895469644113015 l -24.97227682308512 -54.56893163686401" fill="#48f4ff" stroke="none" /><path d="M 108.4095320186766 119.2426549942271 l 23.976019231738093 54.86182408089511 a80.87210735963582,80.87210735963582 0 0,0 -1.2768740094050701,0.5450215869930838 l -23.03071014716259 -55.2653203175476" fill="#48f5ff" stroke="none" /><path d="M 107.407793817531 119.65005319985036 l 21.108067275304435 55.99165623699774 a80.83824924127465,80.83824924127465 0 0,0 -1.3026924049778514,0.47836669527783493 l -20.143785718672458 -56.3457537812843" fill="#48f6ff" stroke="none" /><path d="M 106.72888874123015 119.89276391827305 l 19.1853738834979 56.7181488690291 a80.87509484066769,80.87509484066769 0 0,0 -1.3189467177862726,0.4335639837469846 l -18.208904428063892 -57.039133774178104" fill="#48f5ff" stroke="none" /><line stroke="#e1ed5e" stroke-width="0.3" x1="101.45913802915013" x2="101.54496967792366" y1="184.9874750549273" y2="189.98673829345242" /><path d="M 101.47630435890484 185.9873277026323 a86.0,86.0 0 0,1 -42.54439059252881,-10.42667462771756" fill="none" id="id43" stroke="none" /><text fill="#e1ed5e" style="font-size:6.75px; font-family:Arial;" text-anchor="middle"><textPath startOffset="22.145653131862474" xlink:href="#id43">July</textPath></text><path d="M 99.27912038922189 120.98762331915562 l -0.41021222161121335 11.942881251416319 a32.949924127465856,32.949924127465856 0 0,0 -0.5651292314700042,-0.024269080800748462 l 0.6151672136820562 -11.93407960218974" fill="#ff0000" stroke="none" /><path d="M 97.48249496171623 120.84855314841334 l -1.6414877786609368 13.593873567464122 a34.692621396054626,34.692621396054626 0 0,0 -0.5906372174207377,-0.07646981276415821 l 1.8746028179724683 -13.563692158499567" fill="#ff1f03" stroke="none" /><path d="M 96.41257539226777 120.69131181640829 l -2.5092238696913105 14.472536480084516 a35.688448406676784,35.688448406676784 0 0,0 -0.6027358601573034,-0.1098385519085597 l 2.757294463399671 -14.42732975424459" fill="#ff3004" stroke="none" /><path d="M 95.00130118170881 120.39639698878247 l -3.496339509189825 14.266258326277567 a35.688448406676784,35.688448406676784 0 0,0 -0.5937788079186684,-0.15093625101896074 l 3.740723610333872 -14.204136843423344" fill="#ff3004" stroke="none" /><path d="M 94.30408787586889 120.21278271476187 l -3.2412246533371283 11.501962849826556 a32.949924127465856,32.949924127465856 0 0,0 -0.5431088728337156,-0.15809107752837406 l 3.4381935385524507 -11.444628077995667" fill="#ff0000" stroke="none" /><path d="M 91.92203290615298 119.3841803445677 l -5.554368496812491 13.32846239549657 a35.439491654021246,35.439491654021246 0 0,0 -0.559547256488747,-0.23883745105847565 l 5.782350828471669 -13.23115029477869" fill="#ff2c04" stroke="none" /><path d="M 91.26138138417905 119.09545874513695 l -6.112226127814828 13.3563171704652 a35.688448406676784,35.688448406676784 0 0,0 -0.5548895804378579,-0.25971634166234203 l 6.3406044221241755 -13.24942459723233" fill="#ff3004" stroke="none" /><path d="M 90.28995756902619 118.62028667847754 l -5.985894897698197 11.47874273616313 a33.94575113808801,33.94575113808801 0 0,0 -0.5143770318412215,-0.27387679705391343 l 6.18206074532598 -11.374295471386642" fill="#ff1202" stroke="none" /><line stroke="#e1ed5e" stroke-width="0.3" x1="58.13341422392154" x2="55.67067388415222" y1="173.97424548756322" y2="178.32567169271397" /><path d="M 57.64086615596768 174.84453072859336 a86.0,86.0 0 0,1 -31.369924170532247,-30.572349798747897" fill="none" id="id44" stroke="none" /><text fill="#e1ed5e" style="font-size:6.75px; font-family:Arial;" text-anchor="middle"><textPath startOffset="22.145653131862474" xlink:href="#id44">August</textPath></text><path d="M 88.1277618465304 117.32195027204791 l -8.163289701503658 11.910483637362235 a35.439491654021246,35.439491654021246 0 0,0 -0.49886131901119296,-0.3482439441922927 l 8.366546111688615 -11.768594877364814" fill="#ff2c04" stroke="none" /><path d="M 86.13680546590413 115.77377054828092 l -9.367911708595697 10.658963880548331 a35.19053490136571,35.19053490136571 0 0,0 -0.4503298787042735,-0.40268775440919574 l 9.549506614123342 -10.496580596255754" fill="#ff2703" stroke="none" /><path d="M 85.86807049272751 115.53346607816431 l -10.052112225392989 11.049032206585002 a35.93740515933232,35.93740515933232 0 0,0 -0.45276035720891267,-0.4190682273129119 l 10.240302353915869 -10.874846233139712" fill="#ff3405" stroke="none" /><path d="M 85.34317274990678 115.03919595460226 l -9.730442977110437 9.984291699754916 a34.941578148710164,34.941578148710164 0 0,0 -0.4259679204514356,-0.42232719087143383 l 9.900402817691834 -9.815784498654821" fill="#ff2303" stroke="none" /><path d="M 84.3458050057657 113.99807769240083 l -10.39258013653643 9.29310924192012 a34.941578148710164,34.941578148710164 0 0,0 -0.3959861432009116,-0.4505595407889368 l 10.550577343695936 -9.113337423319884" fill="#ff2303" stroke="none" /><path d="M 83.64595745247003 113.17365903436017 l -10.663319661823646 8.589615502771832 a34.692621396054626,34.692621396054626 0 0,0 -0.36961447692096333,-0.4669958172373083 l 10.80920056938617 -8.405299741619842" fill="#ff1f03" stroke="none" /><path d="M 83.4222238831116 112.89097897827486 l -11.595324247159713 9.016594268283106 a35.688448406676784,35.688448406676784 0 0,0 -0.37192125548068916,-0.48685686225690866 l 11.748397479994697 -8.816216492785326" fill="#ff3004" stroke="none" /><path d="M 82.78059297857968 112.02048342749411 l -11.83997542728541 8.265222387076282 a35.439491654021246,35.439491654021246 0 0,0 -0.3439491486255792,-0.5018320868895592 l 11.980114312726313 -8.06075556511667" fill="#ff2c04" stroke="none" /><path d="M 82.18462484594161 111.11811171558189 l -12.672165559127262 7.90836853820791 a35.93740515933232,35.93740515933232 0 0,0 -0.32212242501580785,-0.5261627728232637 l 12.806055948598475 -7.689668649260089" fill="#ff3405" stroke="none" /><line stroke="#e1ed5e" stroke-width="0.3" x1="26.387840678322732" x2="22.057713659400534" y1="142.50000000000003" y2="145.00000000000006" /><path d="M 25.521815274538284 143.00000000000003 a86.0,86.0 0 0,1 -11.493303480769212,-40.785679425670985" fill="none" id="id45" stroke="none" /><text fill="#e1ed5e" style="font-size:6.75px; font-family:Arial;" text-anchor="middle"><textPath startOffset="21.40746469413373" xlink:href="#id45">September</textPath></text><path d="M 81.4637452351635 109.86951160357371 l -12.745433141603247 6.7862252585270735 a35.439491654021246,35.439491654021246 0 0,0 -0.2813084427788082,-0.5394460309368813 l 12.860049653357004 -6.566432984485689" fill="#ff2c04" stroke="none" /><path d="M 81.1358732173502 109.22738970284198 l -12.970876249450981 6.3447055525042035 a35.439491654021246,35.439491654021246 0 0,0 -0.2626247613677282,-0.5487847437645627 l 13.077880268778623 -6.121108306674538" fill="#ff2c04" stroke="none" /><path d="M 80.83023694016515 108.57439118712176 l -12.953771035785593 5.7940570189911424 a35.19053490136571,35.19053490136571 0 0,0 -0.24192004349793178,-0.5535604029903755 l 13.051324961300493 -5.570834546224917" fill="#ff2703" stroke="none" /><path d="M 80.5471966667186 107.91128576633889 l -12.45318878031576 5.0646034638455575 a34.44366464339909,34.44366464339909 0 0,0 -0.2180469722245679,-0.5496208088304819 l 12.538294427506452 -4.85008163780151" fill="#ff1a02" stroke="none" /><path d="M 80.16572619554312 106.89939002012753 l -11.521711594489606 4.0078493810016225 a33.19888088012139,33.19888088012139 0 0,0 -0.18261689186363894,-0.5398743918996775 l 11.588813907925612 -3.8094733146277835" fill="#ff0400" stroke="none" /><path d="M 79.83685265289637 105.86919833188381 l -13.62504029287874 3.9660506557921216 a35.19053490136571,35.19053490136571 0 0,0 -0.16385636035037307,-0.5814684173518561 l 13.691115145303687 -3.7315743145372697" fill="#ff2703" stroke="none" /><path d="M 79.56144815229197 104.8234425847677 l -48.46014759035479 11.43646288118291 a70.79135053110774,70.79135053110774 0 0,0 -0.2689705175260153,-1.1851337286107029 l 48.649328969438464 -10.602894818633182" fill="#39ff8a" stroke="none" /><path d="M 79.407916724674 104.11899336999214 l -13.426647621193686 2.6857055594362627 a34.692621396054626,34.692621396054626 0 0,0 -0.11179896763439953,-0.5849794404101568 l 13.470772881110243 -2.4548235539927914" fill="#ff1f03" stroke="none" /><path d="M 79.2786578344484 103.40968896794605 l -54.21468762529137 8.921006217633495 a75.94375948406676,75.94375948406676 0 0,0 -0.20063078369458656,-1.2881935541323861 l 54.35983990112422 -7.989024481569659" fill="#41ffcd" stroke="none" /><path d="M 79.17382384314188 102.69636545807758 l -51.729661755321935 6.697440378134663 a73.16141881638848,73.16141881638848 0 0,0 -0.1505658994060699,-1.2469016380781348 l 51.83700974098767 -5.80844506313313" fill="#3dffaa" stroke="none" /><path d="M 79.0935383218832 101.97986365728391 l -13.879479490403792 1.3144011381816567 a34.941578148710164,34.941578148710164 0 0,0 -0.05142464751430533,-0.597632354404532 l 13.899997760615838 -1.0759477364014627" fill="#ff2303" stroke="none" /><path d="M 79.03789590574601 101.26102812881392 l -14.910449611808133 0.8969756227337242 a35.93740515933232,35.93740515933232 0 0,0 -0.031759100895827265,-0.616118072867059 l 14.923650302160533 -0.6408857564899344" fill="#ff3405" stroke="none" /><path d="M 79.00696218219943 100.54070618675478 l -50.53042519886851 1.3014845093648195 a71.54718323216994,71.54718323216994 0 0,0 -0.021084506540717078,-1.2280668023696648 l 50.54532113700789 -0.43387079102610243" fill="#3aff95" stroke="none" /><line stroke="#e1ed5e" stroke-width="0.3" x1="15.003131293944662" x2="10.003315487706104" y1="100.72959589197737" y2="100.7725132973878" /><path d="M 14.003168132696942 100.73817937305945 a86.0,86.0 0 0,1 10.791469493833604,-42.45332614584628" fill="none" id="id46" stroke="none" /><text fill="#e1ed5e" style="font-size:6.75px; font-family:Arial;" text-anchor="middle"><textPath startOffset="22.145653131862435" xlink:href="#id46">October</textPath></text><path d="M 79.00696218219943 99.45929381324524 l -49.886338729401665 -1.2848951266433326 a70.90288315629742,70.90288315629742 0 0,0 0.04178311294690094,-1.216469744074039 l 49.85693092945792 2.14107113528151" fill="#39ff8c" stroke="none" /><path d="M 79.03789590574601 98.7389718711861 l -13.41940465062732 -0.8072780604603469 a34.44366464339909,34.44366464339909 0 0,0 0.04057142029698287,-0.5898995469153171 l 13.403569269165272 1.037521031529989" fill="#ff1a02" stroke="none" /><path d="M 79.17382384314186 97.30363454192245 l -49.620181848690244 -6.424325970962097 a71.03433232169954,71.03433232169954 0 0,0 0.16694922918645255,-1.2079614567276564 l 49.502588102948586 7.275175735889821" fill="#39ff8e" stroke="none" /><path d="M 79.34024301695615 96.23510406497455 l -49.05124775355839 -8.9387713237317 a70.85906676783006,70.85906676783006 0 0,0 0.2283474177907188,-1.1948101803153204 l 48.890574043485515 9.779484069080336" fill="#39ff8b" stroke="none" /><path d="M 79.48165901384962 95.52812308129327 l -49.48220548139526 -10.784416377928164 a71.64377845220031,71.64377845220031 0 0,0 0.27220930273594385,-1.1994044138416158 l 49.289785317101654 11.632255125708788" fill="#3aff96" stroke="none" /><path d="M 79.73907114497095 94.47779374421319 l -48.15045099102031 -13.123619533147378 a70.90686646433991,70.90686646433991 0 0,0 0.3301609678642574,-1.1716248001901486 l 47.918071531081466 13.94825225724054" fill="#39ff8c" stroke="none" /><path d="M 79.94057633289273 93.78553927170692 l -47.632570188277526 -14.756692003474761 a70.8660375569044,70.8660375569044 0 0,0 0.3699722937757515,-1.1589329407918956 l 47.372233178724514 15.57219397795805" fill="#39ff8b" stroke="none" /><path d="M 80.16572619554312 93.10060997987247 l -37.67646718792366 -13.105831061564318 a60.890838391502285,60.890838391502285 0 0,0 0.35189056157497384,-0.9843005290749326 l 37.44593645630475 13.750666547020174" fill="#59ff2a" stroke="none" /><path d="M 80.41425534168474 92.42381321644754 l -46.59787466791511 -18.02505895790942 a70.96263277693475,70.96263277693475 0 0,0 0.4492317347265495,-1.1323574313998526 l 46.28158425822242 18.822317406522856" fill="#39ff8d" stroke="none" /><path d="M 80.68587082218212 91.75594674310238 l -55.01339544740179 -23.481947217792676 a80.81534522003037,80.81534522003037 0 0,0 0.5555713172796958,-1.2712558985873155 l 54.60219024810512 24.422865186155857" fill="#48f6ff" stroke="none" /><path d="M 80.83023694016515 91.42560881287825 l -45.540004742438676 -20.369464875817428 a70.88794575113809,70.88794575113809 0 0,0 0.5063949103420664,-1.106564268828178 l 45.18362536724156 21.14821812686028" fill="#39ff8c" stroke="none" /><path d="M 81.1358732173502 90.77261029715801 l -44.82734831810258 -21.927302389454546 a70.90288315629742,70.90288315629742 0 0,0 0.5441968028890204,-1.088758148764205 l 44.44433160200181 22.693592394382524" fill="#39ff8c" stroke="none" /><path d="M 81.46374523516351 90.13048839642627 l -44.00690415409422 -23.431197763321254 a70.85607928679818,70.85607928679818 0 0,0 0.5808668360593209,-1.0687295539539259 l 43.59819196841955 24.1831821507498" fill="#39ff8b" stroke="none" /><line stroke="#e1ed5e" stroke-width="0.3" x1="26.387840678322718" x2="22.05771365940052" y1="57.49999999999999" y2="54.99999999999999" /><path d="M 25.521815274538284 56.99999999999999 a86.0,86.0 0 0,1 29.574782752854787,-30.34633250058573" fill="none" id="id47" stroke="none" /><text fill="#e1ed5e" style="font-size:6.75px; font-family:Arial;" text-anchor="middle"><textPath startOffset="21.40746469413373" xlink:href="#id47">November</textPath></text><path d="M 81.81346652052679 89.5 l -51.87146382728922 -29.948003603945374 a80.89600720789073,80.89600720789073 0 0,0 0.7046669744692508,-1.1966785775640938 l 51.34972314269019 30.83403334980304" fill="#48f5ff" stroke="none" /><path d="M 82.18462484594161 88.88188828441811 l -42.334325888895094 -26.41975038787576 a70.90188732928681,70.90188732928681 0 0,0 0.6532505156453084,-1.0270183126210755 l 41.8745576816239 27.142582375175508" fill="#39ff8c" stroke="none" /><path d="M 82.576782715395 88.27688183743585 l -41.3784886213765 -27.84129380773605 a70.87300834597875,70.87300834597875 0 0,0 0.6878403087468772,-1.0035795668183625 l 40.894458575814305 28.54750810962445" fill="#39ff8c" stroke="none" /><path d="M 82.98947788004972 87.6856937992154 l -40.39837674560651 -29.245309329841337 a70.87300834597875,70.87300834597875 0 0,0 0.7218853976773338,-0.9793761840542011 l 39.89038932834536 29.934491823164404" fill="#39ff8c" stroke="none" /><path d="M 83.42222388311158 87.10902102172516 l -39.594691278419894 -30.789071424448473 a71.15681904400607,71.15681904400607 0 0,0 0.75810329090038,-0.9578387427720189 l 39.06032155687795 31.464230111135176" fill="#3aff8f" stroke="none" /><path d="M 83.8745106332314 86.54754324733833 l -38.477736127012015 -32.099495985260944 a71.1090193474962,71.1090193474962 0 0,0 0.790005752259459,-0.9306247897204336 l 37.92103581124544 32.75528755743093" fill="#3aff8f" stroke="none" /><path d="M 84.34580500576568 86.00192230759919 l -37.36874886237459 -33.415365659875626 a71.12993171471928,71.12993171471928 0 0,0 0.8217278558548562,-0.9032228591173949 l 36.789623305677864 34.05192609455068" fill="#3aff8f" stroke="none" /><path d="M 84.83555147118756 85.47280134310135 l -43.35688994440862 -41.53491979421426 a81.04139795144158,81.04139795144158 0 0,0 0.971004065608239,-0.9963357121033782 l 42.63749907764958 42.27307819838537" fill="#49f3ff" stroke="none" /><path d="M 85.34317274990677 84.96080404539775 l -34.99623319881896 -35.909218261861355 a71.14188163884674,71.14188163884674 0 0,0 0.8819137713288571,-0.8448534432364466 l 34.3746469416248 36.50468383540337" fill="#3aff8f" stroke="none" /><path d="M 85.86807049272753 84.46653392183569 l -33.731537924343726 -37.07686907456377 a71.12495257966617,71.12495257966617 0 0,0 0.9101791535087672,-0.8138878115107102 l 33.09009374401157 37.65045241595788" fill="#3aff8f" stroke="none" /><path d="M 86.40962598614128 83.9905735841838 l -38.77845149667616 -45.68091835605521 a80.92090288315629,80.92090288315629 0 0,0 1.0667134676594874,-0.8898903137007055 l 37.98856369485477 46.3398708536678" fill="#48f5ff" stroke="none" /><path d="M 86.68645165197937 83.75963576809568 l -8.365161021020171 -10.20413628948844 a34.19470789074355,34.19470789074355 0 0,0 0.4571494237263647,-0.3682472158441895 l 8.18876082693856 10.346231799126029" fill="#ff1602" stroke="none" /><path d="M 86.96720088162412 83.53348406188908 l -30.949807807717452 -39.104071114598675 a70.8700208649469,70.8700208649469 0 0,0 0.9604239600788859,-0.7468314804297318 l 30.27397390300332 39.62960364664921" fill="#39ff8c" stroke="none" /><path d="M 87.54013794807813 83.0958041407739 l -29.60044428476774 -40.158687602215 a70.88894157814872,70.88894157814872 0 0,0 0.9857579569195146,-0.7136127413237926 l 28.90670531747426 40.660901114911866" fill="#39ff8c" stroke="none" /><path d="M 88.4268655584334 82.4767994020092 l -34.71940332469979 -52.569601793972396 a84.0,84.0 0 0,0 1.210057470971896,-0.7843446331843746 l 33.811860221470866 53.157860268860674" fill="#4dd2ff" stroke="none" /><path d="M 89.03521579738668 82.08984904055464 l -31.246099292101903 -51.03815495812354 a80.84322837632777,80.84322837632777 0 0,0 1.189809225965211,-0.7144462541963519 l 30.36535730957926 51.567015212855814" fill="#48f6ff" stroke="none" /><line stroke="#e1ed5e" stroke-width="0.3" x1="56.869717070023135" x2="54.33264160355391" y1="26.7553504044142" y2="22.446841604673864" /><path d="M 56.362301976729285 25.89364864446614 a86.0,86.0 0 0,1 42.16139366436587,-11.88097634709845" fill="none" id="id48" stroke="none" /><text fill="#e1ed5e" style="font-size:6.75px; font-family:Arial;" text-anchor="middle"><textPath startOffset="22.145653131862474" xlink:href="#id48">December</textPath></text><path d="M 89.34428304082924 81.90426304109057 l -25.84698567410387 -43.8938323654275 a71.93854324734446,71.93854324734446 0 0,0 1.0695121453795866,-0.6174831250364752 l 25.089681060863885 44.331062387740154" fill="#3bff9a" stroke="none" /><path d="M 89.97174638481275 81.54914285379989 l -28.78890580471459 -52.96834411863659 a81.28637139605462,81.28637139605462 0 0,0 1.2317253572548517,-0.6558243755315502 l 27.87539163167318 53.45473896189072" fill="#49f0ff" stroke="none" /><path d="M 90.61103034731259 81.2157712731953 l -26.7368363800827 -53.49158305681317 a80.80140364188165,80.80140364188165 0 0,0 1.2460336387934852,-0.6094974922757987 l 25.81464249202716 53.94267429918619" fill="#48f6ff" stroke="none" /><path d="M 91.26138138417902 80.90454125486306 l -20.80560335086967 -45.463998135235 a70.99848254931715,70.99848254931715 0 0,0 1.11260233450331,-0.497652872492965 l 20.02208761351074 45.814454758637815" fill="#39ff8d" stroke="none" /><path d="M 91.92203290615298 80.6158196554323 l -23.0655685977288 -55.348967909133115 a80.96272761760243,80.96272761760243 0 0,0 1.2874829379881816,-0.5236081025033412 l 22.112031198550174 55.73676326821575" fill="#48f4ff" stroke="none" /><path d="M 92.592206182469 80.34994680014964 l -21.141438880609137 -56.08017838485367 a80.93285280728375,80.93285280728375 0 0,0 1.3042169227411695,-0.47892651931729674 l 20.17563280621384 56.434835753179684" fill="#48f5ff" stroke="none" /><path d="M 93.27111125876988 80.10723608172694 l -19.257806439655823 -56.93228285088837 a81.10114757207892,81.10114757207892 0 0,0 1.3226332854338343,-0.43477583175727397 l 18.27765041657423 57.254479604047674" fill="#49f3ff" stroke="none" /><path d="M 94.30408787586887 79.78721728523814 l -16.227461328986823 -57.58553550456079 a80.82829097116843,80.82829097116843 0 0,0 1.3387420443064784,-0.36488009729716475 l 15.236537883745667 57.855616096002095" fill="#48f6ff" stroke="none" /><path d="M 94.6519064749342 79.69241777938228 l -12.98145216557016 -49.29268831215665 a71.97339719271623,71.97339719271623 0 0,0 1.1974820956058325,-0.3043952659856964 l 12.133364776738947 49.50826880997761" fill="#3bff9a" stroke="none" /></svg>